<svg xmlns="http://www.w3.org/2000/svg" xmlns:xlink="http://www.w3.org/1999/xlink" width="500" zoomAndPan="magnify" viewBox="0 0 375 374.999991" height="500" preserveAspectRatio="xMidYMid meet" version="1.0"><defs><g/><clipPath id="e593edd71d"><path d="M 127 150 L 145 150 L 145 171 L 127 171 Z M 127 150 " clip-rule="nonzero"/></clipPath><clipPath id="89da032a25"><path d="M 178.335938 85.488281 L 257.148438 149.046875 L 196.414062 224.359375 L 117.597656 160.800781 Z M 178.335938 85.488281 " clip-rule="nonzero"/></clipPath><clipPath id="957928fd21"><path d="M 178.335938 85.488281 L 257.148438 149.046875 L 196.414062 224.359375 L 117.597656 160.800781 Z M 178.335938 85.488281 " clip-rule="nonzero"/></clipPath><clipPath id="13ea21019d"><path d="M 178.335938 85.488281 L 257.148438 149.046875 L 196.414062 224.359375 L 117.597656 160.800781 Z M 178.335938 85.488281 " clip-rule="nonzero"/></clipPath><clipPath id="d3cab335ac"><path d="M 126 149 L 146 149 L 146 172 L 126 172 Z M 126 149 " clip-rule="nonzero"/></clipPath><clipPath id="46db07a49e"><path d="M 178.335938 85.488281 L 257.148438 149.046875 L 196.414062 224.359375 L 117.597656 160.800781 Z M 178.335938 85.488281 " clip-rule="nonzero"/></clipPath><clipPath id="d808d6c206"><path d="M 178.335938 85.488281 L 257.148438 149.046875 L 196.414062 224.359375 L 117.597656 160.800781 Z M 178.335938 85.488281 " clip-rule="nonzero"/></clipPath><clipPath id="a712cf50f1"><path d="M 178.335938 85.488281 L 257.148438 149.046875 L 196.414062 224.359375 L 117.597656 160.800781 Z M 178.335938 85.488281 " clip-rule="nonzero"/></clipPath><clipPath id="7917e6423b"><path d="M 122 138 L 246 138 L 246 181 L 122 181 Z M 122 138 " clip-rule="nonzero"/></clipPath><clipPath id="a69d18fb05"><path d="M 178.335938 85.488281 L 257.148438 149.046875 L 196.414062 224.359375 L 117.597656 160.800781 Z M 178.335938 85.488281 " clip-rule="nonzero"/></clipPath><clipPath id="cb7cbf287f"><path d="M 178.335938 85.488281 L 257.148438 149.046875 L 196.414062 224.359375 L 117.597656 160.800781 Z M 178.335938 85.488281 " clip-rule="nonzero"/></clipPath><clipPath id="0dcf92c0f8"><path d="M 178.335938 85.488281 L 257.148438 149.046875 L 196.414062 224.359375 L 117.597656 160.800781 Z M 178.335938 85.488281 " clip-rule="nonzero"/></clipPath><clipPath id="880220c7d0"><path d="M 120 136 L 248 136 L 248 183 L 120 183 Z M 120 136 " clip-rule="nonzero"/></clipPath><clipPath id="32d4991035"><path d="M 178.335938 85.488281 L 257.148438 149.046875 L 196.414062 224.359375 L 117.597656 160.800781 Z M 178.335938 85.488281 " clip-rule="nonzero"/></clipPath><clipPath id="d6fcf20c14"><path d="M 178.335938 85.488281 L 257.148438 149.046875 L 196.414062 224.359375 L 117.597656 160.800781 Z M 178.335938 85.488281 " clip-rule="nonzero"/></clipPath><clipPath id="c84821b205"><path d="M 178.335938 85.488281 L 257.148438 149.046875 L 196.414062 224.359375 L 117.597656 160.800781 Z M 178.335938 85.488281 " clip-rule="nonzero"/></clipPath><clipPath id="af7555c21a"><path d="M 125 139 L 244 139 L 244 180 L 125 180 Z M 125 139 " clip-rule="nonzero"/></clipPath><clipPath id="1d95d9ca3f"><path d="M 178.335938 85.488281 L 257.148438 149.046875 L 196.414062 224.359375 L 117.597656 160.800781 Z M 178.335938 85.488281 " clip-rule="nonzero"/></clipPath><clipPath id="cca2e454f1"><path d="M 178.335938 85.488281 L 257.148438 149.046875 L 196.414062 224.359375 L 117.597656 160.800781 Z M 178.335938 85.488281 " clip-rule="nonzero"/></clipPath><clipPath id="b6b9ab9e52"><path d="M 178.335938 85.488281 L 257.148438 149.046875 L 196.414062 224.359375 L 117.597656 160.800781 Z M 178.335938 85.488281 " clip-rule="nonzero"/></clipPath><clipPath id="a3af2b8f27"><path d="M 123 137 L 246 137 L 246 182 L 123 182 Z M 123 137 " clip-rule="nonzero"/></clipPath><clipPath id="c82b08055f"><path d="M 178.335938 85.488281 L 257.148438 149.046875 L 196.414062 224.359375 L 117.597656 160.800781 Z M 178.335938 85.488281 " clip-rule="nonzero"/></clipPath><clipPath id="517f157731"><path d="M 178.335938 85.488281 L 257.148438 149.046875 L 196.414062 224.359375 L 117.597656 160.800781 Z M 178.335938 85.488281 " clip-rule="nonzero"/></clipPath><clipPath id="46f9428e51"><path d="M 178.335938 85.488281 L 257.148438 149.046875 L 196.414062 224.359375 L 117.597656 160.800781 Z M 178.335938 85.488281 " clip-rule="nonzero"/></clipPath><clipPath id="768663403a"><path d="M 126 140 L 243 140 L 243 178 L 126 178 Z M 126 140 " clip-rule="nonzero"/></clipPath><clipPath id="be9d47a3ea"><path d="M 178.335938 85.488281 L 257.148438 149.046875 L 196.414062 224.359375 L 117.597656 160.800781 Z M 178.335938 85.488281 " clip-rule="nonzero"/></clipPath><clipPath id="56ec5dfaf3"><path d="M 178.335938 85.488281 L 257.148438 149.046875 L 196.414062 224.359375 L 117.597656 160.800781 Z M 178.335938 85.488281 " clip-rule="nonzero"/></clipPath><clipPath id="b575537695"><path d="M 178.335938 85.488281 L 257.148438 149.046875 L 196.414062 224.359375 L 117.597656 160.800781 Z M 178.335938 85.488281 " clip-rule="nonzero"/></clipPath><clipPath id="010ec29ead"><path d="M 124 139 L 245 139 L 245 180 L 124 180 Z M 124 139 " clip-rule="nonzero"/></clipPath><clipPath id="9e493c8255"><path d="M 178.335938 85.488281 L 257.148438 149.046875 L 196.414062 224.359375 L 117.597656 160.800781 Z M 178.335938 85.488281 " clip-rule="nonzero"/></clipPath><clipPath id="9afc51777b"><path d="M 178.335938 85.488281 L 257.148438 149.046875 L 196.414062 224.359375 L 117.597656 160.800781 Z M 178.335938 85.488281 " clip-rule="nonzero"/></clipPath><clipPath id="68c2ce5f43"><path d="M 178.335938 85.488281 L 257.148438 149.046875 L 196.414062 224.359375 L 117.597656 160.800781 Z M 178.335938 85.488281 " clip-rule="nonzero"/></clipPath><clipPath id="608c94e91f"><path d="M 215 142 L 254 142 L 254 178 L 215 178 Z M 215 142 " clip-rule="nonzero"/></clipPath><clipPath id="6e9097ca65"><path d="M 178.335938 85.488281 L 257.148438 149.046875 L 196.414062 224.359375 L 117.597656 160.800781 Z M 178.335938 85.488281 " clip-rule="nonzero"/></clipPath><clipPath id="0da66d55c4"><path d="M 178.335938 85.488281 L 257.148438 149.046875 L 196.414062 224.359375 L 117.597656 160.800781 Z M 178.335938 85.488281 " clip-rule="nonzero"/></clipPath><clipPath id="f5013ec5f1"><path d="M 178.335938 85.488281 L 257.148438 149.046875 L 196.414062 224.359375 L 117.597656 160.800781 Z M 178.335938 85.488281 " clip-rule="nonzero"/></clipPath><clipPath id="4021335b80"><path d="M 213 145 L 251 145 L 251 181 L 213 181 Z M 213 145 " clip-rule="nonzero"/></clipPath><clipPath id="be7cb7225a"><path d="M 178.335938 85.488281 L 257.148438 149.046875 L 196.414062 224.359375 L 117.597656 160.800781 Z M 178.335938 85.488281 " clip-rule="nonzero"/></clipPath><clipPath id="bac6c543b7"><path d="M 178.335938 85.488281 L 257.148438 149.046875 L 196.414062 224.359375 L 117.597656 160.800781 Z M 178.335938 85.488281 " clip-rule="nonzero"/></clipPath><clipPath id="d2645edd14"><path d="M 178.335938 85.488281 L 257.148438 149.046875 L 196.414062 224.359375 L 117.597656 160.800781 Z M 178.335938 85.488281 " clip-rule="nonzero"/></clipPath><clipPath id="3cc3def7db"><path d="M 210 147 L 248 147 L 248 183 L 210 183 Z M 210 147 " clip-rule="nonzero"/></clipPath><clipPath id="c8621ae909"><path d="M 178.335938 85.488281 L 257.148438 149.046875 L 196.414062 224.359375 L 117.597656 160.800781 Z M 178.335938 85.488281 " clip-rule="nonzero"/></clipPath><clipPath id="430927dc7d"><path d="M 178.335938 85.488281 L 257.148438 149.046875 L 196.414062 224.359375 L 117.597656 160.800781 Z M 178.335938 85.488281 " clip-rule="nonzero"/></clipPath><clipPath id="24daf2a10f"><path d="M 178.335938 85.488281 L 257.148438 149.046875 L 196.414062 224.359375 L 117.597656 160.800781 Z M 178.335938 85.488281 " clip-rule="nonzero"/></clipPath><clipPath id="33e662455b"><path d="M 206 149 L 245 149 L 245 186 L 206 186 Z M 206 149 " clip-rule="nonzero"/></clipPath><clipPath id="c194fb2718"><path d="M 178.335938 85.488281 L 257.148438 149.046875 L 196.414062 224.359375 L 117.597656 160.800781 Z M 178.335938 85.488281 " clip-rule="nonzero"/></clipPath><clipPath id="9873cccb2a"><path d="M 178.335938 85.488281 L 257.148438 149.046875 L 196.414062 224.359375 L 117.597656 160.800781 Z M 178.335938 85.488281 " clip-rule="nonzero"/></clipPath><clipPath id="d24c25256f"><path d="M 178.335938 85.488281 L 257.148438 149.046875 L 196.414062 224.359375 L 117.597656 160.800781 Z M 178.335938 85.488281 " clip-rule="nonzero"/></clipPath><clipPath id="614a31991e"><path d="M 202 151 L 242 151 L 242 188 L 202 188 Z M 202 151 " clip-rule="nonzero"/></clipPath><clipPath id="547c1c8b85"><path d="M 178.335938 85.488281 L 257.148438 149.046875 L 196.414062 224.359375 L 117.597656 160.800781 Z M 178.335938 85.488281 " clip-rule="nonzero"/></clipPath><clipPath id="196e94fadb"><path d="M 178.335938 85.488281 L 257.148438 149.046875 L 196.414062 224.359375 L 117.597656 160.800781 Z M 178.335938 85.488281 " clip-rule="nonzero"/></clipPath><clipPath id="579f2a5a14"><path d="M 178.335938 85.488281 L 257.148438 149.046875 L 196.414062 224.359375 L 117.597656 160.800781 Z M 178.335938 85.488281 " clip-rule="nonzero"/></clipPath><clipPath id="a774f20209"><path d="M 197 154 L 218 154 L 218 180 L 197 180 Z M 197 154 " clip-rule="nonzero"/></clipPath><clipPath id="167722c3e2"><path d="M 178.335938 85.488281 L 257.148438 149.046875 L 196.414062 224.359375 L 117.597656 160.800781 Z M 178.335938 85.488281 " clip-rule="nonzero"/></clipPath><clipPath id="3e492ed772"><path d="M 178.335938 85.488281 L 257.148438 149.046875 L 196.414062 224.359375 L 117.597656 160.800781 Z M 178.335938 85.488281 " clip-rule="nonzero"/></clipPath><clipPath id="db0c8d999d"><path d="M 178.335938 85.488281 L 257.148438 149.046875 L 196.414062 224.359375 L 117.597656 160.800781 Z M 178.335938 85.488281 " clip-rule="nonzero"/></clipPath><clipPath id="b90222cd88"><path d="M 196 153 L 219 153 L 219 182 L 196 182 Z M 196 153 " clip-rule="nonzero"/></clipPath><clipPath id="ea6c57a5df"><path d="M 178.335938 85.488281 L 257.148438 149.046875 L 196.414062 224.359375 L 117.597656 160.800781 Z M 178.335938 85.488281 " clip-rule="nonzero"/></clipPath><clipPath id="0a3a3a6fb8"><path d="M 178.335938 85.488281 L 257.148438 149.046875 L 196.414062 224.359375 L 117.597656 160.800781 Z M 178.335938 85.488281 " clip-rule="nonzero"/></clipPath><clipPath id="0a617e7e7d"><path d="M 178.335938 85.488281 L 257.148438 149.046875 L 196.414062 224.359375 L 117.597656 160.800781 Z M 178.335938 85.488281 " clip-rule="nonzero"/></clipPath><clipPath id="2cf5f2a273"><path d="M 203 159 L 222 159 L 222 181 L 203 181 Z M 203 159 " clip-rule="nonzero"/></clipPath><clipPath id="ecf52197ee"><path d="M 178.335938 85.488281 L 257.148438 149.046875 L 196.414062 224.359375 L 117.597656 160.800781 Z M 178.335938 85.488281 " clip-rule="nonzero"/></clipPath><clipPath id="2057087613"><path d="M 178.335938 85.488281 L 257.148438 149.046875 L 196.414062 224.359375 L 117.597656 160.800781 Z M 178.335938 85.488281 " clip-rule="nonzero"/></clipPath><clipPath id="56290bbd03"><path d="M 178.335938 85.488281 L 257.148438 149.046875 L 196.414062 224.359375 L 117.597656 160.800781 Z M 178.335938 85.488281 " clip-rule="nonzero"/></clipPath><clipPath id="55dce56ef2"><path d="M 201 157 L 223 157 L 223 182 L 201 182 Z M 201 157 " clip-rule="nonzero"/></clipPath><clipPath id="c763900800"><path d="M 178.335938 85.488281 L 257.148438 149.046875 L 196.414062 224.359375 L 117.597656 160.800781 Z M 178.335938 85.488281 " clip-rule="nonzero"/></clipPath><clipPath id="61a21e2a58"><path d="M 178.335938 85.488281 L 257.148438 149.046875 L 196.414062 224.359375 L 117.597656 160.800781 Z M 178.335938 85.488281 " clip-rule="nonzero"/></clipPath><clipPath id="e881abf7f7"><path d="M 178.335938 85.488281 L 257.148438 149.046875 L 196.414062 224.359375 L 117.597656 160.800781 Z M 178.335938 85.488281 " clip-rule="nonzero"/></clipPath><clipPath id="9b9fe8074a"><path d="M 208 162 L 227 162 L 227 179 L 208 179 Z M 208 162 " clip-rule="nonzero"/></clipPath><clipPath id="b9b844a354"><path d="M 178.335938 85.488281 L 257.148438 149.046875 L 196.414062 224.359375 L 117.597656 160.800781 Z M 178.335938 85.488281 " clip-rule="nonzero"/></clipPath><clipPath id="0fad938a8e"><path d="M 178.335938 85.488281 L 257.148438 149.046875 L 196.414062 224.359375 L 117.597656 160.800781 Z M 178.335938 85.488281 " clip-rule="nonzero"/></clipPath><clipPath id="33d1a69c6c"><path d="M 178.335938 85.488281 L 257.148438 149.046875 L 196.414062 224.359375 L 117.597656 160.800781 Z M 178.335938 85.488281 " clip-rule="nonzero"/></clipPath><clipPath id="ff4658eedb"><path d="M 206 160 L 229 160 L 229 180 L 206 180 Z M 206 160 " clip-rule="nonzero"/></clipPath><clipPath id="e9a98f1c86"><path d="M 178.335938 85.488281 L 257.148438 149.046875 L 196.414062 224.359375 L 117.597656 160.800781 Z M 178.335938 85.488281 " clip-rule="nonzero"/></clipPath><clipPath id="02e796e97a"><path d="M 178.335938 85.488281 L 257.148438 149.046875 L 196.414062 224.359375 L 117.597656 160.800781 Z M 178.335938 85.488281 " clip-rule="nonzero"/></clipPath><clipPath id="5b8a22156a"><path d="M 178.335938 85.488281 L 257.148438 149.046875 L 196.414062 224.359375 L 117.597656 160.800781 Z M 178.335938 85.488281 " clip-rule="nonzero"/></clipPath><clipPath id="55304acacb"><path d="M 196 154 L 214 154 L 214 180 L 196 180 Z M 196 154 " clip-rule="nonzero"/></clipPath><clipPath id="8a495c1545"><path d="M 178.335938 85.488281 L 257.148438 149.046875 L 196.414062 224.359375 L 117.597656 160.800781 Z M 178.335938 85.488281 " clip-rule="nonzero"/></clipPath><clipPath id="7b9055e256"><path d="M 178.335938 85.488281 L 257.148438 149.046875 L 196.414062 224.359375 L 117.597656 160.800781 Z M 178.335938 85.488281 " clip-rule="nonzero"/></clipPath><clipPath id="b5224b2e94"><path d="M 178.335938 85.488281 L 257.148438 149.046875 L 196.414062 224.359375 L 117.597656 160.800781 Z M 178.335938 85.488281 " clip-rule="nonzero"/></clipPath><clipPath id="fec2dcd4aa"><path d="M 194 152 L 215 152 L 215 182 L 194 182 Z M 194 152 " clip-rule="nonzero"/></clipPath><clipPath id="d7908cd156"><path d="M 178.335938 85.488281 L 257.148438 149.046875 L 196.414062 224.359375 L 117.597656 160.800781 Z M 178.335938 85.488281 " clip-rule="nonzero"/></clipPath><clipPath id="56865e3959"><path d="M 178.335938 85.488281 L 257.148438 149.046875 L 196.414062 224.359375 L 117.597656 160.800781 Z M 178.335938 85.488281 " clip-rule="nonzero"/></clipPath><clipPath id="5ffa001de2"><path d="M 178.335938 85.488281 L 257.148438 149.046875 L 196.414062 224.359375 L 117.597656 160.800781 Z M 178.335938 85.488281 " clip-rule="nonzero"/></clipPath><clipPath id="f73d20a43f"><path d="M 181 142 L 199 142 L 199 164 L 181 164 Z M 181 142 " clip-rule="nonzero"/></clipPath><clipPath id="8e51178779"><path d="M 178.335938 85.488281 L 257.148438 149.046875 L 196.414062 224.359375 L 117.597656 160.800781 Z M 178.335938 85.488281 " clip-rule="nonzero"/></clipPath><clipPath id="acb5936789"><path d="M 178.335938 85.488281 L 257.148438 149.046875 L 196.414062 224.359375 L 117.597656 160.800781 Z M 178.335938 85.488281 " clip-rule="nonzero"/></clipPath><clipPath id="5138ec7860"><path d="M 178.335938 85.488281 L 257.148438 149.046875 L 196.414062 224.359375 L 117.597656 160.800781 Z M 178.335938 85.488281 " clip-rule="nonzero"/></clipPath><clipPath id="afac9d61dd"><path d="M 179 140 L 200 140 L 200 166 L 179 166 Z M 179 140 " clip-rule="nonzero"/></clipPath><clipPath id="9121a1840f"><path d="M 178.335938 85.488281 L 257.148438 149.046875 L 196.414062 224.359375 L 117.597656 160.800781 Z M 178.335938 85.488281 " clip-rule="nonzero"/></clipPath><clipPath id="16176b87a7"><path d="M 178.335938 85.488281 L 257.148438 149.046875 L 196.414062 224.359375 L 117.597656 160.800781 Z M 178.335938 85.488281 " clip-rule="nonzero"/></clipPath><clipPath id="eeedcb8dc3"><path d="M 178.335938 85.488281 L 257.148438 149.046875 L 196.414062 224.359375 L 117.597656 160.800781 Z M 178.335938 85.488281 " clip-rule="nonzero"/></clipPath><clipPath id="beaea6e226"><path d="M 187 146 L 203 146 L 203 170 L 187 170 Z M 187 146 " clip-rule="nonzero"/></clipPath><clipPath id="63de0b2416"><path d="M 178.335938 85.488281 L 257.148438 149.046875 L 196.414062 224.359375 L 117.597656 160.800781 Z M 178.335938 85.488281 " clip-rule="nonzero"/></clipPath><clipPath id="ec0d8639ab"><path d="M 178.335938 85.488281 L 257.148438 149.046875 L 196.414062 224.359375 L 117.597656 160.800781 Z M 178.335938 85.488281 " clip-rule="nonzero"/></clipPath><clipPath id="574ae6d742"><path d="M 178.335938 85.488281 L 257.148438 149.046875 L 196.414062 224.359375 L 117.597656 160.800781 Z M 178.335938 85.488281 " clip-rule="nonzero"/></clipPath><clipPath id="a4d1c800f7"><path d="M 185 144 L 205 144 L 205 172 L 185 172 Z M 185 144 " clip-rule="nonzero"/></clipPath><clipPath id="319a4bc917"><path d="M 178.335938 85.488281 L 257.148438 149.046875 L 196.414062 224.359375 L 117.597656 160.800781 Z M 178.335938 85.488281 " clip-rule="nonzero"/></clipPath><clipPath id="8d3ae7e920"><path d="M 178.335938 85.488281 L 257.148438 149.046875 L 196.414062 224.359375 L 117.597656 160.800781 Z M 178.335938 85.488281 " clip-rule="nonzero"/></clipPath><clipPath id="78b5004a26"><path d="M 178.335938 85.488281 L 257.148438 149.046875 L 196.414062 224.359375 L 117.597656 160.800781 Z M 178.335938 85.488281 " clip-rule="nonzero"/></clipPath><clipPath id="ebcb122f23"><path d="M 192 150 L 209 150 L 209 177 L 192 177 Z M 192 150 " clip-rule="nonzero"/></clipPath><clipPath id="65923a0bdf"><path d="M 178.335938 85.488281 L 257.148438 149.046875 L 196.414062 224.359375 L 117.597656 160.800781 Z M 178.335938 85.488281 " clip-rule="nonzero"/></clipPath><clipPath id="e02af4a840"><path d="M 178.335938 85.488281 L 257.148438 149.046875 L 196.414062 224.359375 L 117.597656 160.800781 Z M 178.335938 85.488281 " clip-rule="nonzero"/></clipPath><clipPath id="9b61b8f1c2"><path d="M 178.335938 85.488281 L 257.148438 149.046875 L 196.414062 224.359375 L 117.597656 160.800781 Z M 178.335938 85.488281 " clip-rule="nonzero"/></clipPath><clipPath id="ad0c9751e6"><path d="M 190 148 L 211 148 L 211 179 L 190 179 Z M 190 148 " clip-rule="nonzero"/></clipPath><clipPath id="6a85e6da47"><path d="M 178.335938 85.488281 L 257.148438 149.046875 L 196.414062 224.359375 L 117.597656 160.800781 Z M 178.335938 85.488281 " clip-rule="nonzero"/></clipPath><clipPath id="f0b73eb0f9"><path d="M 178.335938 85.488281 L 257.148438 149.046875 L 196.414062 224.359375 L 117.597656 160.800781 Z M 178.335938 85.488281 " clip-rule="nonzero"/></clipPath><clipPath id="033d69d282"><path d="M 178.335938 85.488281 L 257.148438 149.046875 L 196.414062 224.359375 L 117.597656 160.800781 Z M 178.335938 85.488281 " clip-rule="nonzero"/></clipPath><clipPath id="416a8ac412"><path d="M 176 140 L 194 140 L 194 161 L 176 161 Z M 176 140 " clip-rule="nonzero"/></clipPath><clipPath id="9edda895dc"><path d="M 178.335938 85.488281 L 257.148438 149.046875 L 196.414062 224.359375 L 117.597656 160.800781 Z M 178.335938 85.488281 " clip-rule="nonzero"/></clipPath><clipPath id="a7fb7c640d"><path d="M 178.335938 85.488281 L 257.148438 149.046875 L 196.414062 224.359375 L 117.597656 160.800781 Z M 178.335938 85.488281 " clip-rule="nonzero"/></clipPath><clipPath id="a31fc9f2b1"><path d="M 178.335938 85.488281 L 257.148438 149.046875 L 196.414062 224.359375 L 117.597656 160.800781 Z M 178.335938 85.488281 " clip-rule="nonzero"/></clipPath><clipPath id="b445d0b502"><path d="M 174 138 L 195 138 L 195 163 L 174 163 Z M 174 138 " clip-rule="nonzero"/></clipPath><clipPath id="5b492b0a2e"><path d="M 178.335938 85.488281 L 257.148438 149.046875 L 196.414062 224.359375 L 117.597656 160.800781 Z M 178.335938 85.488281 " clip-rule="nonzero"/></clipPath><clipPath id="d397e4a692"><path d="M 178.335938 85.488281 L 257.148438 149.046875 L 196.414062 224.359375 L 117.597656 160.800781 Z M 178.335938 85.488281 " clip-rule="nonzero"/></clipPath><clipPath id="3744ef74cc"><path d="M 178.335938 85.488281 L 257.148438 149.046875 L 196.414062 224.359375 L 117.597656 160.800781 Z M 178.335938 85.488281 " clip-rule="nonzero"/></clipPath><clipPath id="1025d1563d"><path d="M 170 138 L 188 138 L 188 160 L 170 160 Z M 170 138 " clip-rule="nonzero"/></clipPath><clipPath id="8eb171726f"><path d="M 178.335938 85.488281 L 257.148438 149.046875 L 196.414062 224.359375 L 117.597656 160.800781 Z M 178.335938 85.488281 " clip-rule="nonzero"/></clipPath><clipPath id="622f537f76"><path d="M 178.335938 85.488281 L 257.148438 149.046875 L 196.414062 224.359375 L 117.597656 160.800781 Z M 178.335938 85.488281 " clip-rule="nonzero"/></clipPath><clipPath id="6c6effc10c"><path d="M 178.335938 85.488281 L 257.148438 149.046875 L 196.414062 224.359375 L 117.597656 160.800781 Z M 178.335938 85.488281 " clip-rule="nonzero"/></clipPath><clipPath id="15c5070c6c"><path d="M 168 137 L 189 137 L 189 161 L 168 161 Z M 168 137 " clip-rule="nonzero"/></clipPath><clipPath id="1922beff1f"><path d="M 178.335938 85.488281 L 257.148438 149.046875 L 196.414062 224.359375 L 117.597656 160.800781 Z M 178.335938 85.488281 " clip-rule="nonzero"/></clipPath><clipPath id="1502944792"><path d="M 178.335938 85.488281 L 257.148438 149.046875 L 196.414062 224.359375 L 117.597656 160.800781 Z M 178.335938 85.488281 " clip-rule="nonzero"/></clipPath><clipPath id="fc841c041b"><path d="M 178.335938 85.488281 L 257.148438 149.046875 L 196.414062 224.359375 L 117.597656 160.800781 Z M 178.335938 85.488281 " clip-rule="nonzero"/></clipPath><clipPath id="5f1d8f2455"><path d="M 165 138 L 183 138 L 183 160 L 165 160 Z M 165 138 " clip-rule="nonzero"/></clipPath><clipPath id="48b62ed9fa"><path d="M 178.335938 85.488281 L 257.148438 149.046875 L 196.414062 224.359375 L 117.597656 160.800781 Z M 178.335938 85.488281 " clip-rule="nonzero"/></clipPath><clipPath id="fe39a3ede0"><path d="M 178.335938 85.488281 L 257.148438 149.046875 L 196.414062 224.359375 L 117.597656 160.800781 Z M 178.335938 85.488281 " clip-rule="nonzero"/></clipPath><clipPath id="6db500d8c2"><path d="M 178.335938 85.488281 L 257.148438 149.046875 L 196.414062 224.359375 L 117.597656 160.800781 Z M 178.335938 85.488281 " clip-rule="nonzero"/></clipPath><clipPath id="94bbf7bdfd"><path d="M 164 137 L 184 137 L 184 161 L 164 161 Z M 164 137 " clip-rule="nonzero"/></clipPath><clipPath id="46241bf63c"><path d="M 178.335938 85.488281 L 257.148438 149.046875 L 196.414062 224.359375 L 117.597656 160.800781 Z M 178.335938 85.488281 " clip-rule="nonzero"/></clipPath><clipPath id="fb5b1319ab"><path d="M 178.335938 85.488281 L 257.148438 149.046875 L 196.414062 224.359375 L 117.597656 160.800781 Z M 178.335938 85.488281 " clip-rule="nonzero"/></clipPath><clipPath id="ce4291eb68"><path d="M 178.335938 85.488281 L 257.148438 149.046875 L 196.414062 224.359375 L 117.597656 160.800781 Z M 178.335938 85.488281 " clip-rule="nonzero"/></clipPath><clipPath id="e70b83ce96"><path d="M 159 138 L 178 138 L 178 162 L 159 162 Z M 159 138 " clip-rule="nonzero"/></clipPath><clipPath id="97cc138921"><path d="M 178.335938 85.488281 L 257.148438 149.046875 L 196.414062 224.359375 L 117.597656 160.800781 Z M 178.335938 85.488281 " clip-rule="nonzero"/></clipPath><clipPath id="8cb07e735e"><path d="M 178.335938 85.488281 L 257.148438 149.046875 L 196.414062 224.359375 L 117.597656 160.800781 Z M 178.335938 85.488281 " clip-rule="nonzero"/></clipPath><clipPath id="e000f35f8a"><path d="M 178.335938 85.488281 L 257.148438 149.046875 L 196.414062 224.359375 L 117.597656 160.800781 Z M 178.335938 85.488281 " clip-rule="nonzero"/></clipPath><clipPath id="5cffbb53c8"><path d="M 158 136 L 180 136 L 180 163 L 158 163 Z M 158 136 " clip-rule="nonzero"/></clipPath><clipPath id="62088f91e0"><path d="M 178.335938 85.488281 L 257.148438 149.046875 L 196.414062 224.359375 L 117.597656 160.800781 Z M 178.335938 85.488281 " clip-rule="nonzero"/></clipPath><clipPath id="d0eaa2bc5a"><path d="M 178.335938 85.488281 L 257.148438 149.046875 L 196.414062 224.359375 L 117.597656 160.800781 Z M 178.335938 85.488281 " clip-rule="nonzero"/></clipPath><clipPath id="38b0cdfa6f"><path d="M 178.335938 85.488281 L 257.148438 149.046875 L 196.414062 224.359375 L 117.597656 160.800781 Z M 178.335938 85.488281 " clip-rule="nonzero"/></clipPath><clipPath id="8ae831f4fa"><path d="M 154 139 L 173 139 L 173 164 L 154 164 Z M 154 139 " clip-rule="nonzero"/></clipPath><clipPath id="347bb1c240"><path d="M 178.335938 85.488281 L 257.148438 149.046875 L 196.414062 224.359375 L 117.597656 160.800781 Z M 178.335938 85.488281 " clip-rule="nonzero"/></clipPath><clipPath id="bf99fa53c1"><path d="M 178.335938 85.488281 L 257.148438 149.046875 L 196.414062 224.359375 L 117.597656 160.800781 Z M 178.335938 85.488281 " clip-rule="nonzero"/></clipPath><clipPath id="8fa6bff5d9"><path d="M 178.335938 85.488281 L 257.148438 149.046875 L 196.414062 224.359375 L 117.597656 160.800781 Z M 178.335938 85.488281 " clip-rule="nonzero"/></clipPath><clipPath id="49e1b36988"><path d="M 152 138 L 175 138 L 175 166 L 152 166 Z M 152 138 " clip-rule="nonzero"/></clipPath><clipPath id="42142c8da5"><path d="M 178.335938 85.488281 L 257.148438 149.046875 L 196.414062 224.359375 L 117.597656 160.800781 Z M 178.335938 85.488281 " clip-rule="nonzero"/></clipPath><clipPath id="05b69cc4f2"><path d="M 178.335938 85.488281 L 257.148438 149.046875 L 196.414062 224.359375 L 117.597656 160.800781 Z M 178.335938 85.488281 " clip-rule="nonzero"/></clipPath><clipPath id="3c30568988"><path d="M 178.335938 85.488281 L 257.148438 149.046875 L 196.414062 224.359375 L 117.597656 160.800781 Z M 178.335938 85.488281 " clip-rule="nonzero"/></clipPath><clipPath id="7921cd24e2"><path d="M 149 140 L 168 140 L 168 167 L 149 167 Z M 149 140 " clip-rule="nonzero"/></clipPath><clipPath id="c4bff7dce3"><path d="M 178.335938 85.488281 L 257.148438 149.046875 L 196.414062 224.359375 L 117.597656 160.800781 Z M 178.335938 85.488281 " clip-rule="nonzero"/></clipPath><clipPath id="2c2a6a22d9"><path d="M 178.335938 85.488281 L 257.148438 149.046875 L 196.414062 224.359375 L 117.597656 160.800781 Z M 178.335938 85.488281 " clip-rule="nonzero"/></clipPath><clipPath id="9c8f777802"><path d="M 178.335938 85.488281 L 257.148438 149.046875 L 196.414062 224.359375 L 117.597656 160.800781 Z M 178.335938 85.488281 " clip-rule="nonzero"/></clipPath><clipPath id="d62b265b04"><path d="M 147 139 L 170 139 L 170 169 L 147 169 Z M 147 139 " clip-rule="nonzero"/></clipPath><clipPath id="224ec14931"><path d="M 178.335938 85.488281 L 257.148438 149.046875 L 196.414062 224.359375 L 117.597656 160.800781 Z M 178.335938 85.488281 " clip-rule="nonzero"/></clipPath><clipPath id="bed506bcd1"><path d="M 178.335938 85.488281 L 257.148438 149.046875 L 196.414062 224.359375 L 117.597656 160.800781 Z M 178.335938 85.488281 " clip-rule="nonzero"/></clipPath><clipPath id="3023c6618d"><path d="M 178.335938 85.488281 L 257.148438 149.046875 L 196.414062 224.359375 L 117.597656 160.800781 Z M 178.335938 85.488281 " clip-rule="nonzero"/></clipPath><clipPath id="ae8ca506b6"><path d="M 143 142 L 163 142 L 163 170 L 143 170 Z M 143 142 " clip-rule="nonzero"/></clipPath><clipPath id="6311da3722"><path d="M 178.335938 85.488281 L 257.148438 149.046875 L 196.414062 224.359375 L 117.597656 160.800781 Z M 178.335938 85.488281 " clip-rule="nonzero"/></clipPath><clipPath id="d4f4686f8a"><path d="M 178.335938 85.488281 L 257.148438 149.046875 L 196.414062 224.359375 L 117.597656 160.800781 Z M 178.335938 85.488281 " clip-rule="nonzero"/></clipPath><clipPath id="e01640d5f4"><path d="M 178.335938 85.488281 L 257.148438 149.046875 L 196.414062 224.359375 L 117.597656 160.800781 Z M 178.335938 85.488281 " clip-rule="nonzero"/></clipPath><clipPath id="40f2f9f660"><path d="M 142 141 L 164 141 L 164 172 L 142 172 Z M 142 141 " clip-rule="nonzero"/></clipPath><clipPath id="8b27cbdd89"><path d="M 178.335938 85.488281 L 257.148438 149.046875 L 196.414062 224.359375 L 117.597656 160.800781 Z M 178.335938 85.488281 " clip-rule="nonzero"/></clipPath><clipPath id="d43782bb15"><path d="M 178.335938 85.488281 L 257.148438 149.046875 L 196.414062 224.359375 L 117.597656 160.800781 Z M 178.335938 85.488281 " clip-rule="nonzero"/></clipPath><clipPath id="e9ca423228"><path d="M 178.335938 85.488281 L 257.148438 149.046875 L 196.414062 224.359375 L 117.597656 160.800781 Z M 178.335938 85.488281 " clip-rule="nonzero"/></clipPath><clipPath id="a10cef561a"><path d="M 138 144 L 157 144 L 157 174 L 138 174 Z M 138 144 " clip-rule="nonzero"/></clipPath><clipPath id="daa2316a10"><path d="M 178.335938 85.488281 L 257.148438 149.046875 L 196.414062 224.359375 L 117.597656 160.800781 Z M 178.335938 85.488281 " clip-rule="nonzero"/></clipPath><clipPath id="ff96d4312d"><path d="M 178.335938 85.488281 L 257.148438 149.046875 L 196.414062 224.359375 L 117.597656 160.800781 Z M 178.335938 85.488281 " clip-rule="nonzero"/></clipPath><clipPath id="2b28ef35ef"><path d="M 178.335938 85.488281 L 257.148438 149.046875 L 196.414062 224.359375 L 117.597656 160.800781 Z M 178.335938 85.488281 " clip-rule="nonzero"/></clipPath><clipPath id="ddc1bc54b5"><path d="M 136 143 L 159 143 L 159 176 L 136 176 Z M 136 143 " clip-rule="nonzero"/></clipPath><clipPath id="fe397da794"><path d="M 178.335938 85.488281 L 257.148438 149.046875 L 196.414062 224.359375 L 117.597656 160.800781 Z M 178.335938 85.488281 " clip-rule="nonzero"/></clipPath><clipPath id="721adc2fd4"><path d="M 178.335938 85.488281 L 257.148438 149.046875 L 196.414062 224.359375 L 117.597656 160.800781 Z M 178.335938 85.488281 " clip-rule="nonzero"/></clipPath><clipPath id="0740730543"><path d="M 178.335938 85.488281 L 257.148438 149.046875 L 196.414062 224.359375 L 117.597656 160.800781 Z M 178.335938 85.488281 " clip-rule="nonzero"/></clipPath><clipPath id="413741b07f"><path d="M 132 147 L 153 147 L 153 177 L 132 177 Z M 132 147 " clip-rule="nonzero"/></clipPath><clipPath id="73cdf3ea90"><path d="M 178.335938 85.488281 L 257.148438 149.046875 L 196.414062 224.359375 L 117.597656 160.800781 Z M 178.335938 85.488281 " clip-rule="nonzero"/></clipPath><clipPath id="9469f3e6c5"><path d="M 178.335938 85.488281 L 257.148438 149.046875 L 196.414062 224.359375 L 117.597656 160.800781 Z M 178.335938 85.488281 " clip-rule="nonzero"/></clipPath><clipPath id="51de9b812d"><path d="M 178.335938 85.488281 L 257.148438 149.046875 L 196.414062 224.359375 L 117.597656 160.800781 Z M 178.335938 85.488281 " clip-rule="nonzero"/></clipPath><clipPath id="9fcd50c014"><path d="M 131 146 L 155 146 L 155 179 L 131 179 Z M 131 146 " clip-rule="nonzero"/></clipPath><clipPath id="49700b456e"><path d="M 178.335938 85.488281 L 257.148438 149.046875 L 196.414062 224.359375 L 117.597656 160.800781 Z M 178.335938 85.488281 " clip-rule="nonzero"/></clipPath><clipPath id="571cc52167"><path d="M 178.335938 85.488281 L 257.148438 149.046875 L 196.414062 224.359375 L 117.597656 160.800781 Z M 178.335938 85.488281 " clip-rule="nonzero"/></clipPath><clipPath id="05a57669c0"><path d="M 178.335938 85.488281 L 257.148438 149.046875 L 196.414062 224.359375 L 117.597656 160.800781 Z M 178.335938 85.488281 " clip-rule="nonzero"/></clipPath><clipPath id="24b716073e"><path d="M 125 147 L 162 147 L 162 176 L 125 176 Z M 125 147 " clip-rule="nonzero"/></clipPath><clipPath id="cebd37b4bf"><path d="M 178.335938 85.488281 L 257.148438 149.046875 L 196.414062 224.359375 L 117.597656 160.800781 Z M 178.335938 85.488281 " clip-rule="nonzero"/></clipPath><clipPath id="df8f30a463"><path d="M 178.335938 85.488281 L 257.148438 149.046875 L 196.414062 224.359375 L 117.597656 160.800781 Z M 178.335938 85.488281 " clip-rule="nonzero"/></clipPath><clipPath id="8501618797"><path d="M 178.335938 85.488281 L 257.148438 149.046875 L 196.414062 224.359375 L 117.597656 160.800781 Z M 178.335938 85.488281 " clip-rule="nonzero"/></clipPath><clipPath id="207a45e643"><path d="M 140 141 L 175 141 L 175 167 L 140 167 Z M 140 141 " clip-rule="nonzero"/></clipPath><clipPath id="957e1729bd"><path d="M 178.335938 85.488281 L 257.148438 149.046875 L 196.414062 224.359375 L 117.597656 160.800781 Z M 178.335938 85.488281 " clip-rule="nonzero"/></clipPath><clipPath id="38b33ed457"><path d="M 178.335938 85.488281 L 257.148438 149.046875 L 196.414062 224.359375 L 117.597656 160.800781 Z M 178.335938 85.488281 " clip-rule="nonzero"/></clipPath><clipPath id="a9bdb17a63"><path d="M 178.335938 85.488281 L 257.148438 149.046875 L 196.414062 224.359375 L 117.597656 160.800781 Z M 178.335938 85.488281 " clip-rule="nonzero"/></clipPath><clipPath id="062dfbf553"><path d="M 156 140 L 191 140 L 191 159 L 156 159 Z M 156 140 " clip-rule="nonzero"/></clipPath><clipPath id="d90ec13f08"><path d="M 178.335938 85.488281 L 257.148438 149.046875 L 196.414062 224.359375 L 117.597656 160.800781 Z M 178.335938 85.488281 " clip-rule="nonzero"/></clipPath><clipPath id="75f052480d"><path d="M 178.335938 85.488281 L 257.148438 149.046875 L 196.414062 224.359375 L 117.597656 160.800781 Z M 178.335938 85.488281 " clip-rule="nonzero"/></clipPath><clipPath id="95c0b6ad25"><path d="M 178.335938 85.488281 L 257.148438 149.046875 L 196.414062 224.359375 L 117.597656 160.800781 Z M 178.335938 85.488281 " clip-rule="nonzero"/></clipPath><clipPath id="7d96b347bd"><path d="M 178 143 L 203 143 L 203 166 L 178 166 Z M 178 143 " clip-rule="nonzero"/></clipPath><clipPath id="0b304b05ac"><path d="M 178.335938 85.488281 L 257.148438 149.046875 L 196.414062 224.359375 L 117.597656 160.800781 Z M 178.335938 85.488281 " clip-rule="nonzero"/></clipPath><clipPath id="87eb5d9400"><path d="M 178.335938 85.488281 L 257.148438 149.046875 L 196.414062 224.359375 L 117.597656 160.800781 Z M 178.335938 85.488281 " clip-rule="nonzero"/></clipPath><clipPath id="a8a4a0749e"><path d="M 178.335938 85.488281 L 257.148438 149.046875 L 196.414062 224.359375 L 117.597656 160.800781 Z M 178.335938 85.488281 " clip-rule="nonzero"/></clipPath><clipPath id="27c3255673"><path d="M 195 155 L 221 155 L 221 179 L 195 179 Z M 195 155 " clip-rule="nonzero"/></clipPath><clipPath id="3f4a07642f"><path d="M 178.335938 85.488281 L 257.148438 149.046875 L 196.414062 224.359375 L 117.597656 160.800781 Z M 178.335938 85.488281 " clip-rule="nonzero"/></clipPath><clipPath id="406174fab5"><path d="M 178.335938 85.488281 L 257.148438 149.046875 L 196.414062 224.359375 L 117.597656 160.800781 Z M 178.335938 85.488281 " clip-rule="nonzero"/></clipPath><clipPath id="9f1d8fd77d"><path d="M 178.335938 85.488281 L 257.148438 149.046875 L 196.414062 224.359375 L 117.597656 160.800781 Z M 178.335938 85.488281 " clip-rule="nonzero"/></clipPath><clipPath id="357e84025e"><path d="M 211 160 L 233 160 L 233 178 L 211 178 Z M 211 160 " clip-rule="nonzero"/></clipPath><clipPath id="7ff1de3303"><path d="M 178.335938 85.488281 L 257.148438 149.046875 L 196.414062 224.359375 L 117.597656 160.800781 Z M 178.335938 85.488281 " clip-rule="nonzero"/></clipPath><clipPath id="66b3a9961c"><path d="M 178.335938 85.488281 L 257.148438 149.046875 L 196.414062 224.359375 L 117.597656 160.800781 Z M 178.335938 85.488281 " clip-rule="nonzero"/></clipPath><clipPath id="7d295a0297"><path d="M 178.335938 85.488281 L 257.148438 149.046875 L 196.414062 224.359375 L 117.597656 160.800781 Z M 178.335938 85.488281 " clip-rule="nonzero"/></clipPath><clipPath id="a3f11c14c1"><path d="M 221 153 L 243 153 L 243 172 L 221 172 Z M 221 153 " clip-rule="nonzero"/></clipPath><clipPath id="6c81fc1065"><path d="M 178.335938 85.488281 L 257.148438 149.046875 L 196.414062 224.359375 L 117.597656 160.800781 Z M 178.335938 85.488281 " clip-rule="nonzero"/></clipPath><clipPath id="d1c0ecbe49"><path d="M 178.335938 85.488281 L 257.148438 149.046875 L 196.414062 224.359375 L 117.597656 160.800781 Z M 178.335938 85.488281 " clip-rule="nonzero"/></clipPath><clipPath id="64cb0e79f2"><path d="M 178.335938 85.488281 L 257.148438 149.046875 L 196.414062 224.359375 L 117.597656 160.800781 Z M 178.335938 85.488281 " clip-rule="nonzero"/></clipPath></defs><g clip-path="url(#e593edd71d)"><g clip-path="url(#89da032a25)"><g clip-path="url(#957928fd21)"><g clip-path="url(#13ea21019d)"><path fill="#000000" d="M 129.992188 150.835938 L 144.425781 169.300781 L 143.890625 170.167969 L 127.617188 152.171875 Z M 129.992188 150.835938 " fill-opacity="1" fill-rule="evenodd"/></g></g></g></g><g clip-path="url(#d3cab335ac)"><g clip-path="url(#46db07a49e)"><g clip-path="url(#d808d6c206)"><g clip-path="url(#a712cf50f1)"><path stroke-linecap="butt" transform="matrix(0.202336, 0.163174, -0.163662, 0.202941, 167.034853, 95.902069)" fill="none" stroke-linejoin="miter" d="M 21.737413 253.21056 L 109.5546 273.58782 L 110.046284 277.465579 L 17.851435 262.91793 Z M 21.737413 253.21056 " stroke="#000000" stroke-width="1" stroke-opacity="1" stroke-miterlimit="4"/></g></g></g></g><g clip-path="url(#7917e6423b)"><g clip-path="url(#a69d18fb05)"><g clip-path="url(#cb7cbf287f)"><g clip-path="url(#0dcf92c0f8)"><path fill="#000000" d="M 122.644531 154.925781 L 151.996094 178.292969 C 219.332031 121.894531 187.808594 217.421875 245.351562 163.28125 L 229.71875 151.585938 C 194.449219 192.578125 199.714844 102.730469 122.644531 154.925781 Z M 122.644531 154.925781 " fill-opacity="1" fill-rule="evenodd"/></g></g></g></g><g clip-path="url(#880220c7d0)"><g clip-path="url(#32d4991035)"><g clip-path="url(#d6fcf20c14)"><g clip-path="url(#c84821b205)"><path stroke-linecap="butt" transform="matrix(0.202336, 0.163174, -0.163662, 0.202941, 167.034853, 95.902069)" fill="none" stroke-linejoin="miter" d="M 9.610807 283.113715 L 153.941677 282.207965 C 219.385436 -48.316768 355.68614 312.805555 397.255966 12.601948 L 322.196243 15.324212 C 315.573813 222.639244 114.356483 -58.30044 9.610807 283.113715 Z M 9.610807 283.113715 " stroke="#000000" stroke-width="1.209" stroke-opacity="1" stroke-miterlimit="4"/></g></g></g></g><g clip-path="url(#af7555c21a)"><g clip-path="url(#1d95d9ca3f)"><g clip-path="url(#cca2e454f1)"><g clip-path="url(#b6b9ab9e52)"><path fill="#ffffff" d="M 125.105469 154.476562 L 152.007812 176.046875 C 219.515625 122.007812 188.523438 214.941406 243.582031 163.472656 L 229.785156 153.050781 C 194.835938 192.703125 198.582031 105.511719 125.105469 154.476562 Z M 125.105469 154.476562 " fill-opacity="1" fill-rule="evenodd"/></g></g></g></g><g clip-path="url(#a3af2b8f27)"><g clip-path="url(#c82b08055f)"><g clip-path="url(#517f157731)"><g clip-path="url(#46f9428e51)"><path stroke-linecap="butt" transform="matrix(0.202336, 0.163174, -0.163662, 0.202941, 167.034853, 95.902069)" fill="none" stroke-linejoin="miter" d="M 15.895605 275.846924 L 148.552354 275.473517 C 220.208817 -48.420605 351.836414 303.678314 392.419069 17.434184 L 325.93277 19.537945 C 317.033787 222.081304 117.680934 -47.268745 15.895605 275.846924 Z M 15.895605 275.846924 " stroke="#000000" stroke-width="1.167" stroke-opacity="1" stroke-miterlimit="4"/></g></g></g></g><g clip-path="url(#768663403a)"><g clip-path="url(#be9d47a3ea)"><g clip-path="url(#56ec5dfaf3)"><g clip-path="url(#b575537695)"><path fill="#000000" d="M 126.023438 155.726562 L 150.183594 174.761719 C 217.648438 119.214844 190.84375 212.886719 242.878906 162.558594 L 231.054688 153.375 C 193.367188 195.316406 199.980469 107.679688 126.019531 155.726562 Z M 126.023438 155.726562 " fill-opacity="1" fill-rule="evenodd"/></g></g></g></g><g clip-path="url(#010ec29ead)"><g clip-path="url(#9e493c8255)"><g clip-path="url(#9afc51777b)"><g clip-path="url(#68c2ce5f43)"><path stroke-linecap="butt" transform="matrix(0.202336, 0.163174, -0.163662, 0.202941, 167.034853, 95.902069)" fill="none" stroke-linejoin="miter" d="M 21.663419 277.368765 L 139.985722 276.028814 C 207.872074 -52.263768 353.822808 291.956628 388.105944 16.398052 L 330.517593 17.449147 C 318.946565 233.420373 127.104526 -44.162988 21.651721 277.378171 Z M 21.663419 277.368765 " stroke="#000000" stroke-width="1.049" stroke-opacity="1" stroke-miterlimit="4"/></g></g></g></g><g clip-path="url(#608c94e91f)"><g clip-path="url(#6e9097ca65)"><g clip-path="url(#0da66d55c4)"><g clip-path="url(#f5013ec5f1)"><path stroke-linecap="butt" transform="matrix(0.202336, 0.163174, -0.163662, 0.202941, 167.034853, 95.902069)" fill="none" stroke-linejoin="miter" d="M 323.054319 30.01357 L 391.462089 29.521562 " stroke="#000000" stroke-width="8" stroke-opacity="1" stroke-miterlimit="4"/></g></g></g></g><g clip-path="url(#4021335b80)"><g clip-path="url(#be7cb7225a)"><g clip-path="url(#bac6c543b7)"><g clip-path="url(#d2645edd14)"><path stroke-linecap="butt" transform="matrix(0.202336, 0.163174, -0.163662, 0.202941, 164.339233, 98.440935)" fill="none" stroke-linejoin="miter" d="M 323.055714 30.013416 L 391.463484 29.521408 " stroke="#000000" stroke-width="8" stroke-opacity="1" stroke-miterlimit="4"/></g></g></g></g><g clip-path="url(#3cc3def7db)"><g clip-path="url(#c8621ae909)"><g clip-path="url(#430927dc7d)"><g clip-path="url(#24daf2a10f)"><path stroke-linecap="butt" transform="matrix(0.202336, 0.163174, -0.163662, 0.202941, 161.349208, 100.742389)" fill="none" stroke-linejoin="miter" d="M 323.047615 30.016615 L 391.464819 29.53627 " stroke="#000000" stroke-width="8" stroke-opacity="1" stroke-miterlimit="4"/></g></g></g></g><g clip-path="url(#33e662455b)"><g clip-path="url(#c194fb2718)"><g clip-path="url(#9873cccb2a)"><g clip-path="url(#d24c25256f)"><path stroke-linecap="butt" transform="matrix(0.20877, 0.168363, -0.163662, 0.202941, 156.039268, 101.172934)" fill="none" stroke-linejoin="miter" d="M 323.047035 30.010462 L 391.468761 29.528617 " stroke="#000000" stroke-width="8" stroke-opacity="1" stroke-miterlimit="4"/></g></g></g></g><g clip-path="url(#614a31991e)"><g clip-path="url(#547c1c8b85)"><g clip-path="url(#196e94fadb)"><g clip-path="url(#579f2a5a14)"><path stroke-linecap="butt" transform="matrix(0.213832, 0.17778, -0.167088, 0.200134, 150.900052, 99.69638)" fill="none" stroke-linejoin="miter" d="M 323.058087 30.015559 L 391.456519 29.529102 " stroke="#000000" stroke-width="8" stroke-opacity="1" stroke-miterlimit="4"/></g></g></g></g><g clip-path="url(#a774f20209)"><g clip-path="url(#167722c3e2)"><g clip-path="url(#3e492ed772)"><g clip-path="url(#db0c8d999d)"><path fill="#000000" d="M 197.671875 154.710938 L 215.246094 179.933594 L 217.039062 179.917969 L 199.613281 156.117188 Z M 197.671875 154.710938 " fill-opacity="1" fill-rule="evenodd"/></g></g></g></g><g clip-path="url(#b90222cd88)"><g clip-path="url(#ea6c57a5df)"><g clip-path="url(#0a3a3a6fb8)"><g clip-path="url(#0a617e7e7d)"><path stroke-linecap="butt" transform="matrix(0.202336, 0.163174, -0.163662, 0.202941, 167.034853, 95.902069)" fill="none" stroke-linejoin="miter" d="M 233.773635 101.818381 L 347.316358 134.810524 L 352.647962 130.44669 L 242.983651 101.342468 Z M 233.773635 101.818381 " stroke="#000000" stroke-width="1" stroke-opacity="1" stroke-miterlimit="4"/></g></g></g></g><g clip-path="url(#2cf5f2a273)"><g clip-path="url(#ecf52197ee)"><g clip-path="url(#2057087613)"><g clip-path="url(#56290bbd03)"><path fill="#000000" d="M 203.089844 159.242188 L 219.933594 180.140625 L 221.515625 179.386719 L 204.835938 160.492188 L 203.085938 159.242188 Z M 203.089844 159.242188 " fill-opacity="1" fill-rule="evenodd"/></g></g></g></g><g clip-path="url(#55dce56ef2)"><g clip-path="url(#c763900800)"><g clip-path="url(#61a21e2a58)"><g clip-path="url(#e881abf7f7)"><path stroke-linecap="butt" transform="matrix(0.202336, 0.163174, -0.163662, 0.202941, 167.034853, 95.902069)" fill="none" stroke-linejoin="miter" d="M 260.941802 102.301869 L 361.853835 124.141912 L 364.77077 118.081672 L 269.189572 101.829717 L 260.930104 102.311274 Z M 260.941802 102.301869 " stroke="#000000" stroke-width="1" stroke-opacity="1" stroke-miterlimit="4"/></g></g></g></g><g clip-path="url(#9b9fe8074a)"><g clip-path="url(#b9b844a354)"><g clip-path="url(#0fad938a8e)"><g clip-path="url(#33d1a69c6c)"><path fill="#000000" d="M 208.046875 162.394531 L 224.417969 178.417969 L 226.890625 177.34375 L 211.660156 163.789062 Z M 208.046875 162.394531 " fill-opacity="1" fill-rule="evenodd"/></g></g></g></g><g clip-path="url(#ff4658eedb)"><g clip-path="url(#e9a98f1c86)"><g clip-path="url(#02e796e97a)"><g clip-path="url(#5b8a22156a)"><path stroke-linecap="butt" transform="matrix(0.202336, 0.163174, -0.163662, 0.202941, 167.034853, 95.902069)" fill="none" stroke-linejoin="miter" d="M 283.399496 99.778178 L 371.122739 108.200865 L 375.933228 99.039776 L 297.587915 95.241668 Z M 283.399496 99.778178 " stroke="#000000" stroke-width="1" stroke-opacity="1" stroke-miterlimit="4"/></g></g></g></g><g clip-path="url(#55304acacb)"><g clip-path="url(#8a495c1545)"><g clip-path="url(#7b9055e256)"><g clip-path="url(#b5224b2e94)"><path fill="#000000" d="M 196.214844 154.105469 L 211.128906 178.808594 L 213.125 179.851562 L 197.316406 154.75 Z M 196.214844 154.105469 " fill-opacity="1" fill-rule="evenodd"/></g></g></g></g><g clip-path="url(#fec2dcd4aa)"><g clip-path="url(#d7908cd156)"><g clip-path="url(#56865e3959)"><g clip-path="url(#5ffa001de2)"><path stroke-linecap="butt" transform="matrix(0.202336, 0.163174, -0.163662, 0.202941, 167.034853, 95.902069)" fill="none" stroke-linejoin="miter" d="M 227.948082 103.518913 L 332.269839 141.365108 L 340.766286 139.672856 L 232.803463 102.790923 Z M 227.948082 103.518913 " stroke="#000000" stroke-width="1" stroke-opacity="1" stroke-miterlimit="4"/></g></g></g></g><g clip-path="url(#f73d20a43f)"><g clip-path="url(#8e51178779)"><g clip-path="url(#acb5936789)"><g clip-path="url(#5138ec7860)"><path fill="#000000" d="M 181.101562 142.40625 L 196.238281 162.414062 L 198.09375 163.828125 L 182.664062 143.179688 Z M 181.101562 142.40625 " fill-opacity="1" fill-rule="evenodd"/></g></g></g></g><g clip-path="url(#afac9d61dd)"><g clip-path="url(#9121a1840f)"><g clip-path="url(#16176b87a7)"><g clip-path="url(#eeedcb8dc3)"><path stroke-linecap="butt" transform="matrix(0.202336, 0.163174, -0.163662, 0.202941, 167.034853, 95.902069)" fill="none" stroke-linejoin="miter" d="M 154.434746 104.978566 L 248.083895 128.269702 L 257.055424 128.024039 L 160.981795 103.525591 Z M 154.434746 104.978566 " stroke="#000000" stroke-width="1" stroke-opacity="1" stroke-miterlimit="4"/></g></g></g></g><g clip-path="url(#beaea6e226)"><g clip-path="url(#63de0b2416)"><g clip-path="url(#ec0d8639ab)"><g clip-path="url(#574ae6d742)"><path fill="#000000" d="M 187.402344 146.351562 L 200.332031 166.28125 L 202.855469 169.78125 L 189.386719 147.707031 Z M 187.402344 146.351562 " fill-opacity="1" fill-rule="evenodd"/></g></g></g></g><g clip-path="url(#a4d1c800f7)"><g clip-path="url(#319a4bc917)"><g clip-path="url(#8d3ae7e920)"><g clip-path="url(#78b5004a26)"><path stroke-linecap="butt" transform="matrix(0.202336, 0.163174, -0.163662, 0.202941, 167.034853, 95.902069)" fill="none" stroke-linejoin="miter" d="M 182.831575 101.586931 L 269.682731 129.958985 L 285.692235 134.333008 L 192.047629 100.855937 Z M 182.831575 101.586931 " stroke="#000000" stroke-width="1" stroke-opacity="1" stroke-miterlimit="4"/></g></g></g></g><g clip-path="url(#ebcb122f23)"><g clip-path="url(#65923a0bdf)"><g clip-path="url(#e02af4a840)"><g clip-path="url(#9b61b8f1c2)"><path fill="#000000" d="M 192.3125 150.308594 L 205.628906 173.074219 L 208.84375 176.722656 L 193.1875 150.933594 Z M 192.3125 150.308594 " fill-opacity="1" fill-rule="evenodd"/></g></g></g></g><g clip-path="url(#ad0c9751e6)"><g clip-path="url(#6a85e6da47)"><g clip-path="url(#f0b73eb0f9)"><g clip-path="url(#033d69d282)"><path stroke-linecap="butt" transform="matrix(0.202336, 0.163174, -0.163662, 0.202941, 167.034853, 95.902069)" fill="none" stroke-linejoin="miter" d="M 207.092251 101.578688 L 301.950415 137.486931 L 320.388932 140.639352 L 211.221984 101.337909 Z M 207.092251 101.578688 " stroke="#000000" stroke-width="1" stroke-opacity="1" stroke-miterlimit="4"/></g></g></g></g><g clip-path="url(#416a8ac412)"><g clip-path="url(#9edda895dc)"><g clip-path="url(#a7fb7c640d)"><g clip-path="url(#a31fc9f2b1)"><path fill="#000000" d="M 193.199219 160.859375 L 179.027344 141.464844 L 176.015625 140.175781 L 189.738281 159.527344 Z M 193.199219 160.859375 " fill-opacity="1" fill-rule="evenodd"/></g></g></g></g><g clip-path="url(#b445d0b502)"><g clip-path="url(#5b492b0a2e)"><g clip-path="url(#d397e4a692)"><g clip-path="url(#3744ef74cc)"><path stroke-linecap="butt" transform="matrix(0.202336, 0.163174, -0.163662, 0.202941, 167.034853, 95.902069)" fill="none" stroke-linejoin="miter" d="M 235.228284 130.945401 L 145.94962 107.162168 L 133.81739 110.565113 L 221.647024 135.3017 Z M 235.228284 130.945401 " stroke="#000000" stroke-width="1" stroke-opacity="1" stroke-miterlimit="4"/></g></g></g></g><g clip-path="url(#1025d1563d)"><g clip-path="url(#8eb171726f)"><g clip-path="url(#622f537f76)"><g clip-path="url(#6c6effc10c)"><path fill="#000000" d="M 187.390625 159.421875 L 173.96875 139.5 L 170.207031 138.738281 L 184.847656 159.160156 Z M 187.390625 159.421875 " fill-opacity="1" fill-rule="evenodd"/></g></g></g></g><g clip-path="url(#15c5070c6c)"><g clip-path="url(#1922beff1f)"><g clip-path="url(#1502944792)"><g clip-path="url(#fc841c041b)"><path stroke-linecap="butt" transform="matrix(0.202336, 0.163174, -0.163662, 0.202941, 167.034853, 95.902069)" fill="none" stroke-linejoin="miter" d="M 214.36187 140.63958 L 126.055646 113.47596 L 112.950977 120.259292 L 206.114471 145.981221 Z M 214.36187 140.63958 " stroke="#000000" stroke-width="1" stroke-opacity="1" stroke-miterlimit="4"/></g></g></g></g><g clip-path="url(#5f1d8f2455)"><g clip-path="url(#48b62ed9fa)"><g clip-path="url(#fe39a3ede0)"><g clip-path="url(#6db500d8c2)"><path fill="#000000" d="M 182.363281 159.429688 L 168.09375 139.148438 L 165.789062 138.589844 L 179.820312 159.167969 Z M 182.363281 159.429688 " fill-opacity="1" fill-rule="evenodd"/></g></g></g></g><g clip-path="url(#94bbf7bdfd)"><g clip-path="url(#46241bf63c)"><g clip-path="url(#fb5b1319ab)"><g clip-path="url(#ce4291eb68)"><path stroke-linecap="butt" transform="matrix(0.202336, 0.163174, -0.163662, 0.202941, 167.034853, 95.902069)" fill="none" stroke-linejoin="miter" d="M 199.325533 152.767948 L 107.612956 126.572352 L 99.362162 130.453861 L 191.078133 158.109589 Z M 199.325533 152.767948 " stroke="#000000" stroke-width="1" stroke-opacity="1" stroke-miterlimit="4"/></g></g></g></g><g clip-path="url(#e70b83ce96)"><g clip-path="url(#97cc138921)"><g clip-path="url(#8cb07e735e)"><g clip-path="url(#e000f35f8a)"><path fill="#000000" d="M 177.722656 160.5625 L 162.003906 138.460938 L 159.988281 138.949219 L 176.179688 161.269531 L 177.71875 160.5625 Z M 177.722656 160.5625 " fill-opacity="1" fill-rule="evenodd"/></g></g></g></g><g clip-path="url(#5cffbb53c8)"><g clip-path="url(#62088f91e0)"><g clip-path="url(#d0eaa2bc5a)"><g clip-path="url(#38b0cdfa6f)"><path stroke-linecap="butt" transform="matrix(0.202336, 0.163174, -0.163662, 0.202941, 167.034853, 95.902069)" fill="none" stroke-linejoin="miter" d="M 188.164213 167.324105 L 87.715577 139.183034 L 82.858678 145.494213 L 185.251052 173.150332 L 188.152515 167.33351 Z M 188.164213 167.324105 " stroke="#000000" stroke-width="1" stroke-opacity="1" stroke-miterlimit="4"/></g></g></g></g><g clip-path="url(#8ae831f4fa)"><g clip-path="url(#347bb1c240)"><g clip-path="url(#bf99fa53c1)"><g clip-path="url(#8fa6bff5d9)"><path fill="#000000" d="M 156.476562 139.691406 L 172.863281 162.167969 L 171.21875 163.605469 L 154.050781 139.6875 L 156.476562 139.695312 Z M 156.476562 139.691406 " fill-opacity="1" fill-rule="evenodd"/></g></g></g></g><g clip-path="url(#49e1b36988)"><g clip-path="url(#42142c8da5)"><g clip-path="url(#05b69cc4f2)"><g clip-path="url(#3c30568988)"><path stroke-linecap="butt" transform="matrix(0.202336, 0.163174, -0.163662, 0.202941, 167.034853, 95.902069)" fill="none" stroke-linejoin="miter" d="M 74.134676 156.165844 L 177.489296 183.818202 L 176.036105 192.069958 L 66.860843 161.995075 L 74.14411 156.177507 Z M 74.134676 156.165844 " stroke="#000000" stroke-width="1" stroke-opacity="1" stroke-miterlimit="4"/></g></g></g></g><g clip-path="url(#7921cd24e2)"><g clip-path="url(#c4bff7dce3)"><g clip-path="url(#2c2a6a22d9)"><g clip-path="url(#9c8f777802)"><path fill="#000000" d="M 151.738281 140.746094 L 167.976562 165.214844 L 165.542969 166.828125 L 149.410156 141.628906 L 151.742188 140.746094 Z M 151.738281 140.746094 " fill-opacity="1" fill-rule="evenodd"/></g></g></g></g><g clip-path="url(#d62b265b04)"><g clip-path="url(#224ec14931)"><g clip-path="url(#bed506bcd1)"><g clip-path="url(#3023c6618d)"><path stroke-linecap="butt" transform="matrix(0.202336, 0.163174, -0.163662, 0.202941, 167.034853, 95.902069)" fill="none" stroke-linejoin="miter" d="M 62.492234 170.723881 L 170.213555 204.681788 L 166.821906 215.358317 L 57.652313 178.965475 L 62.503931 170.714476 Z M 62.492234 170.723881 " stroke="#000000" stroke-width="1" stroke-opacity="1" stroke-miterlimit="4"/></g></g></g></g><g clip-path="url(#ae8ca506b6)"><g clip-path="url(#6311da3722)"><g clip-path="url(#d4f4686f8a)"><g clip-path="url(#e01640d5f4)"><path fill="#000000" d="M 145.769531 142.921875 L 162.101562 168.28125 L 159.941406 169.953125 L 143.5 143.527344 L 145.773438 142.921875 Z M 145.769531 142.921875 " fill-opacity="1" fill-rule="evenodd"/></g></g></g></g><g clip-path="url(#40f2f9f660)"><g clip-path="url(#8b27cbdd89)"><g clip-path="url(#d43782bb15)"><g clip-path="url(#e9ca423228)"><path stroke-linecap="butt" transform="matrix(0.202336, 0.163174, -0.163662, 0.202941, 167.034853, 95.902069)" fill="none" stroke-linejoin="miter" d="M 49.872442 191.591976 L 160.025412 227.983314 L 157.594123 238.176394 L 44.538192 198.864411 L 49.88414 191.58257 Z M 49.872442 191.591976 " stroke="#000000" stroke-width="1" stroke-opacity="1" stroke-miterlimit="4"/></g></g></g></g><g clip-path="url(#a10cef561a)"><g clip-path="url(#daa2316a10)"><g clip-path="url(#ff96d4312d)"><g clip-path="url(#2b28ef35ef)"><path fill="#000000" d="M 140.238281 144.960938 C 145.789062 154.152344 150.058594 164.929688 156.890625 172.53125 L 155.425781 173.945312 C 147.019531 164.550781 143.847656 155.621094 138.0625 146.457031 Z M 140.238281 144.960938 " fill-opacity="1" fill-rule="evenodd"/></g></g></g></g><g clip-path="url(#ddc1bc54b5)"><g clip-path="url(#fe397da794)"><g clip-path="url(#721adc2fd4)"><g clip-path="url(#0740730543)"><path stroke-linecap="butt" transform="matrix(0.202336, 0.163174, -0.163662, 0.202941, 167.034853, 95.902069)" fill="none" stroke-linejoin="miter" d="M 38.232634 210.998434 C 77.053016 225.076102 115.866594 246.973998 154.684346 253.219775 L 153.712655 260.968894 C 105.850548 253.160263 74.786253 234.13599 35.330033 220.704301 Z M 38.232634 210.998434 " stroke="#000000" stroke-width="1" stroke-opacity="1" stroke-miterlimit="4"/></g></g></g></g><g clip-path="url(#413741b07f)"><g clip-path="url(#73cdf3ea90)"><g clip-path="url(#9469f3e6c5)"><g clip-path="url(#51de9b812d)"><path fill="#000000" d="M 135.078125 147.945312 C 140.917969 157.3125 143.632812 167.019531 152.59375 176.050781 L 151.960938 176.835938 L 132.625 149.382812 Z M 135.078125 147.945312 " fill-opacity="1" fill-rule="evenodd"/></g></g></g></g><g clip-path="url(#9fcd50c014)"><g clip-path="url(#49700b456e)"><g clip-path="url(#571cc52167)"><g clip-path="url(#05a57669c0)"><path stroke-linecap="butt" transform="matrix(0.202336, 0.163174, -0.163662, 0.202941, 167.034853, 95.902069)" fill="none" stroke-linejoin="miter" d="M 29.987099 232.333807 C 70.097645 246.240294 101.670605 268.685964 150.316474 274.074336 L 150.317601 277.942313 L 26.11244 242.532528 Z M 29.987099 232.333807 " stroke="#000000" stroke-width="1" stroke-opacity="1" stroke-miterlimit="4"/></g></g></g></g><g clip-path="url(#24b716073e)"><g clip-path="url(#cebd37b4bf)"><g clip-path="url(#df8f30a463)"><g clip-path="url(#8501618797)"><path stroke-linecap="butt" transform="matrix(0.202336, 0.163174, -0.163662, 0.202941, 167.034853, 95.902069)" fill="none" stroke-linejoin="miter" d="M 27.56029 276.496306 L 136.726162 275.531439 C 139.285009 255.996675 143.098165 241.497318 146.920755 227.009623 L 47.456593 223.619315 C 39.897848 237.569378 33.883971 257.6301 27.56029 276.496306 Z M 27.56029 276.496306 " stroke="#ffffff" stroke-width="1" stroke-opacity="0.9412" stroke-miterlimit="4"/></g></g></g></g><g clip-path="url(#207a45e643)"><g clip-path="url(#957e1729bd)"><g clip-path="url(#38b33ed457)"><g clip-path="url(#a9bdb17a63)"><path stroke-linecap="butt" transform="matrix(0.202336, 0.163174, -0.163662, 0.202941, 167.034853, 95.902069)" fill="none" stroke-linejoin="miter" d="M 51.328606 216.329195 L 148.856956 219.235674 C 153.771226 202.445856 160.804323 186.724146 168.27477 171.208984 L 82.865445 163.928521 C 65.262346 187.610024 58.99603 201.367837 51.328606 216.329195 Z M 51.328606 216.329195 " stroke="#ffffff" stroke-width="1" stroke-opacity="0.9412" stroke-miterlimit="4"/><path stroke-linecap="butt" transform="matrix(0.202336, 0.163174, -0.163662, 0.202941, 167.034853, 95.902069)" fill="none" stroke-linejoin="miter" d="M 51.328606 216.329195 L 148.856956 219.235674 C 153.771226 202.445856 160.804323 186.724146 168.27477 171.208984 L 82.865445 163.928521 C 65.262346 187.610024 58.99603 201.367837 51.328606 216.329195 Z M 51.328606 216.329195 " stroke="#ffffff" stroke-width="1" stroke-opacity="0.9412" stroke-miterlimit="4"/></g></g></g></g><g clip-path="url(#062dfbf553)"><g clip-path="url(#d90ec13f08)"><g clip-path="url(#75f052480d)"><g clip-path="url(#95c0b6ad25)"><path stroke-linecap="butt" transform="matrix(0.202336, 0.163174, -0.163662, 0.202941, 167.034853, 95.902069)" fill="none" stroke-linejoin="miter" d="M 85.780113 159.082738 L 170.21776 166.355299 C 181.907003 145.196005 198.648966 135.295648 210.488001 126.565723 L 147.888815 116.863151 C 128.828034 122.584013 97.332745 145.559321 85.780113 159.082738 Z M 85.780113 159.082738 " stroke="#ffffff" stroke-width="1" stroke-opacity="0.9412" stroke-miterlimit="4"/></g></g></g></g><g clip-path="url(#7d96b347bd)"><g clip-path="url(#0b304b05ac)"><g clip-path="url(#87eb5d9400)"><g clip-path="url(#a8a4a0749e)"><path stroke-linecap="butt" transform="matrix(0.202336, 0.163174, -0.163662, 0.202941, 167.034853, 95.902069)" fill="none" stroke-linejoin="miter" d="M 156.058476 114.432744 L 214.287177 124.627414 C 235.68867 118.506627 234.957366 116.361387 265.713007 120.754994 L 220.104447 110.075764 C 201.041031 110.948204 180.702171 109.169757 156.058476 114.432744 Z M 156.058476 114.432744 " stroke="#ffffff" stroke-width="1" stroke-opacity="0.9412" stroke-miterlimit="4"/></g></g></g></g><g clip-path="url(#27c3255673)"><g clip-path="url(#3f4a07642f)"><g clip-path="url(#406174fab5)"><g clip-path="url(#9f1d8fd77d)"><path stroke-linecap="butt" transform="matrix(0.202336, 0.163174, -0.163662, 0.202941, 167.034853, 95.902069)" fill="none" stroke-linejoin="miter" d="M 237.652796 110.075036 L 289.089164 125.596299 C 321.675713 131.251017 332.244948 131.453065 351.197067 115.406312 L 303.16101 100.365494 C 289.273711 109.856897 269.583132 114.775268 237.652796 110.075036 Z M 237.652796 110.075036 " stroke="#ffffff" stroke-width="1" stroke-opacity="1" stroke-miterlimit="4"/></g></g></g></g><g clip-path="url(#357e84025e)"><g clip-path="url(#7ff1de3303)"><g clip-path="url(#66b3a9961c)"><g clip-path="url(#7d295a0297)"><path stroke-linecap="butt" transform="matrix(0.202336, 0.163174, -0.163662, 0.202941, 167.034853, 95.902069)" fill="none" stroke-linejoin="miter" d="M 306.550385 97.467055 L 354.586819 112.007118 C 363.019882 101.954378 370.155616 87.86323 374.48386 71.255881 L 325.958366 65.443502 C 321.451639 79.03766 318.459235 85.004595 306.550385 97.467055 Z M 306.550385 97.467055 " stroke="#ffffff" stroke-width="1" stroke-opacity="0.9412" stroke-miterlimit="4"/></g></g></g></g><g clip-path="url(#a3f11c14c1)"><g clip-path="url(#6c81fc1065)"><g clip-path="url(#d1c0ecbe49)"><g clip-path="url(#64cb0e79f2)"><path stroke-linecap="butt" transform="matrix(0.202336, 0.163174, -0.163662, 0.202941, 167.034853, 95.902069)" fill="none" stroke-linejoin="miter" d="M 327.410798 60.580034 L 375.942332 64.943944 C 381.044902 47.098061 382.930169 33.532869 384.19205 20.796125 L 333.248102 21.278376 C 332.520548 35.606555 330.723205 48.850826 327.410798 60.580034 Z M 327.410798 60.580034 " stroke="#ffffff" stroke-width="1" stroke-opacity="1" stroke-miterlimit="4"/></g></g></g></g><g fill="#ffffff" fill-opacity="1"><g transform="translate(108.447514, 214.0194)"><g><path d="M 7.984375 0 L 3.328125 0 L 3.328125 -25.640625 L 9.96875 -25.640625 L 16.453125 -6.78125 L 16.828125 -6.78125 L 23.28125 -25.640625 L 29.75 -25.640625 L 29.75 0 L 24.9375 0 L 24.9375 -16.9375 L 24.5 -17.015625 L 18.578125 0 L 14.34375 0 L 8.421875 -17.015625 L 7.984375 -16.9375 Z M 7.984375 0 "/></g></g></g><g fill="#ffffff" fill-opacity="1"><g transform="translate(139.762881, 214.0194)"><g><path d="M 11.25 0.375 C 9.351562 0.375 7.6875 -0.015625 6.25 -0.796875 C 4.820312 -1.578125 3.710938 -2.71875 2.921875 -4.21875 C 2.128906 -5.71875 1.734375 -7.535156 1.734375 -9.671875 C 1.734375 -11.796875 2.128906 -13.609375 2.921875 -15.109375 C 3.710938 -16.617188 4.820312 -17.765625 6.25 -18.546875 C 7.6875 -19.328125 9.351562 -19.71875 11.25 -19.71875 C 13.132812 -19.71875 14.789062 -19.328125 16.21875 -18.546875 C 17.65625 -17.765625 18.769531 -16.617188 19.5625 -15.109375 C 20.363281 -13.609375 20.765625 -11.796875 20.765625 -9.671875 C 20.765625 -7.535156 20.363281 -5.71875 19.5625 -4.21875 C 18.769531 -2.71875 17.65625 -1.578125 16.21875 -0.796875 C 14.789062 -0.015625 13.132812 0.375 11.25 0.375 Z M 11.25 -3.75 C 14.25 -3.75 15.75 -5.722656 15.75 -9.671875 C 15.75 -11.710938 15.363281 -13.207031 14.59375 -14.15625 C 13.820312 -15.113281 12.707031 -15.59375 11.25 -15.59375 C 8.238281 -15.59375 6.734375 -13.617188 6.734375 -9.671875 C 6.734375 -5.722656 8.238281 -3.75 11.25 -3.75 Z M 11.25 -3.75 "/></g></g></g><g fill="#ffffff" fill-opacity="1"><g transform="translate(160.450179, 214.0194)"><g><path d="M 11.359375 0.375 C 9.585938 0.375 8.007812 0.15625 6.625 -0.28125 C 5.238281 -0.726562 4.082031 -1.304688 3.15625 -2.015625 C 2.226562 -2.734375 1.519531 -3.519531 1.03125 -4.375 L 3.828125 -7.765625 L 4.265625 -7.765625 C 5.035156 -6.617188 6.015625 -5.707031 7.203125 -5.03125 C 8.390625 -4.351562 9.773438 -4.015625 11.359375 -4.015625 C 12.722656 -4.015625 13.75 -4.300781 14.4375 -4.875 C 15.125 -5.445312 15.46875 -6.238281 15.46875 -7.25 C 15.46875 -7.851562 15.351562 -8.359375 15.125 -8.765625 C 14.90625 -9.179688 14.539062 -9.535156 14.03125 -9.828125 C 13.519531 -10.117188 12.820312 -10.367188 11.9375 -10.578125 L 8.640625 -11.328125 C 6.335938 -11.859375 4.625 -12.734375 3.5 -13.953125 C 2.375 -15.171875 1.8125 -16.757812 1.8125 -18.71875 C 1.8125 -20.164062 2.171875 -21.4375 2.890625 -22.53125 C 3.617188 -23.632812 4.675781 -24.488281 6.0625 -25.09375 C 7.445312 -25.707031 9.101562 -26.015625 11.03125 -26.015625 C 13.007812 -26.015625 14.703125 -25.753906 16.109375 -25.234375 C 17.515625 -24.710938 18.707031 -23.914062 19.6875 -22.84375 L 17.171875 -19.40625 L 16.734375 -19.40625 C 16.003906 -20.164062 15.171875 -20.734375 14.234375 -21.109375 C 13.304688 -21.484375 12.238281 -21.671875 11.03125 -21.671875 C 9.644531 -21.671875 8.585938 -21.425781 7.859375 -20.9375 C 7.128906 -20.445312 6.765625 -19.769531 6.765625 -18.90625 C 6.765625 -18.101562 7.019531 -17.460938 7.53125 -16.984375 C 8.039062 -16.503906 8.921875 -16.128906 10.171875 -15.859375 L 13.546875 -15.15625 C 16.035156 -14.625 17.835938 -13.726562 18.953125 -12.46875 C 20.078125 -11.21875 20.640625 -9.582031 20.640625 -7.5625 C 20.640625 -5.957031 20.296875 -4.5625 19.609375 -3.375 C 18.921875 -2.1875 17.878906 -1.265625 16.484375 -0.609375 C 15.097656 0.046875 13.390625 0.375 11.359375 0.375 Z M 11.359375 0.375 "/></g></g></g><g fill="#ffffff" fill-opacity="1"><g transform="translate(180.681483, 214.0194)"><g><path d="M 2.78125 0 L 2.78125 -27.109375 L 7.640625 -27.109375 L 7.640625 -16.828125 L 8.015625 -16.75 C 8.660156 -17.695312 9.445312 -18.425781 10.375 -18.9375 C 11.3125 -19.457031 12.441406 -19.71875 13.765625 -19.71875 C 18.035156 -19.71875 20.171875 -17.296875 20.171875 -12.453125 L 20.171875 0 L 15.3125 0 L 15.3125 -11.84375 C 15.3125 -13.164062 15.046875 -14.125 14.515625 -14.71875 C 13.992188 -15.3125 13.175781 -15.609375 12.0625 -15.609375 C 10.707031 -15.609375 9.628906 -15.15625 8.828125 -14.25 C 8.035156 -13.34375 7.640625 -11.929688 7.640625 -10.015625 L 7.640625 0 Z M 2.78125 0 "/></g></g></g><g fill="#ffffff" fill-opacity="1"><g transform="translate(201.544159, 214.0194)"><g><path d="M 11.25 0.375 C 9.351562 0.375 7.6875 -0.015625 6.25 -0.796875 C 4.820312 -1.578125 3.710938 -2.71875 2.921875 -4.21875 C 2.128906 -5.71875 1.734375 -7.535156 1.734375 -9.671875 C 1.734375 -11.796875 2.128906 -13.609375 2.921875 -15.109375 C 3.710938 -16.617188 4.820312 -17.765625 6.25 -18.546875 C 7.6875 -19.328125 9.351562 -19.71875 11.25 -19.71875 C 13.132812 -19.71875 14.789062 -19.328125 16.21875 -18.546875 C 17.65625 -17.765625 18.769531 -16.617188 19.5625 -15.109375 C 20.363281 -13.609375 20.765625 -11.796875 20.765625 -9.671875 C 20.765625 -7.535156 20.363281 -5.71875 19.5625 -4.21875 C 18.769531 -2.71875 17.65625 -1.578125 16.21875 -0.796875 C 14.789062 -0.015625 13.132812 0.375 11.25 0.375 Z M 11.25 -3.75 C 14.25 -3.75 15.75 -5.722656 15.75 -9.671875 C 15.75 -11.710938 15.363281 -13.207031 14.59375 -14.15625 C 13.820312 -15.113281 12.707031 -15.59375 11.25 -15.59375 C 8.238281 -15.59375 6.734375 -13.617188 6.734375 -9.671875 C 6.734375 -5.722656 8.238281 -3.75 11.25 -3.75 Z M 11.25 -3.75 "/></g></g></g><g fill="#ffffff" fill-opacity="1"><g transform="translate(222.231453, 214.0194)"><g><path d="M 10.390625 0 L 5.296875 0 L 0.703125 -19.34375 L 5.203125 -19.34375 L 8.046875 -6.265625 L 8.421875 -6.265625 L 12.109375 -19.34375 L 16.3125 -19.34375 L 20.125 -6.265625 L 20.484375 -6.265625 L 23.21875 -19.34375 L 27.609375 -19.34375 L 23.0625 0 L 17.96875 0 L 14.296875 -13.171875 L 13.921875 -13.171875 Z M 10.390625 0 "/></g></g></g><g fill="#ffffff" fill-opacity="1"><g transform="translate(248.72386, 214.0194)"><g><path d="M 9.046875 0.375 C 7.722656 0.375 6.507812 0.21875 5.40625 -0.09375 C 4.3125 -0.40625 3.375 -0.832031 2.59375 -1.375 C 1.820312 -1.914062 1.25 -2.539062 0.875 -3.25 L 3.578125 -6.15625 L 3.953125 -6.15625 C 4.585938 -5.289062 5.34375 -4.640625 6.21875 -4.203125 C 7.101562 -3.773438 8.054688 -3.5625 9.078125 -3.5625 C 10.023438 -3.5625 10.738281 -3.726562 11.21875 -4.0625 C 11.695312 -4.40625 11.9375 -4.894531 11.9375 -5.53125 C 11.9375 -6.019531 11.765625 -6.429688 11.421875 -6.765625 C 11.078125 -7.097656 10.519531 -7.359375 9.75 -7.546875 L 7.1875 -8.15625 C 5.269531 -8.613281 3.867188 -9.3125 2.984375 -10.25 C 2.109375 -11.195312 1.671875 -12.394531 1.671875 -13.84375 C 1.671875 -15.039062 1.976562 -16.082031 2.59375 -16.96875 C 3.207031 -17.863281 4.070312 -18.546875 5.1875 -19.015625 C 6.300781 -19.484375 7.597656 -19.71875 9.078125 -19.71875 C 10.828125 -19.71875 12.273438 -19.460938 13.421875 -18.953125 C 14.566406 -18.453125 15.460938 -17.78125 16.109375 -16.9375 L 13.5 -14.140625 L 13.15625 -14.140625 C 12.613281 -14.742188 12.003906 -15.1875 11.328125 -15.46875 C 10.660156 -15.75 9.910156 -15.890625 9.078125 -15.890625 C 7.160156 -15.890625 6.203125 -15.296875 6.203125 -14.109375 C 6.203125 -13.597656 6.378906 -13.1875 6.734375 -12.875 C 7.097656 -12.5625 7.726562 -12.304688 8.625 -12.109375 L 11.015625 -11.578125 C 12.984375 -11.148438 14.421875 -10.472656 15.328125 -9.546875 C 16.234375 -8.617188 16.6875 -7.375 16.6875 -5.8125 C 16.6875 -4.582031 16.378906 -3.5 15.765625 -2.5625 C 15.160156 -1.625 14.285156 -0.898438 13.140625 -0.390625 C 11.992188 0.117188 10.628906 0.375 9.046875 0.375 Z M 9.046875 0.375 "/></g></g></g><g fill="#ffffff" fill-opacity="1"><g transform="translate(118.991716, 232.695863)"><g><path d="M 9.25 0 L 8.03125 0 L 8.015625 -5.8125 L 5.5625 -0.8125 L 4.703125 -0.8125 L 2.25 -5.8125 L 2.25 0 L 1.015625 0 L 1.015625 -7.78125 L 2.578125 -7.78125 L 5.140625 -2.609375 L 7.703125 -7.78125 L 9.25 -7.78125 Z M 9.25 0 "/></g></g></g><g fill="#ffffff" fill-opacity="1"><g transform="translate(131.30297, 232.695863)"><g><path d="M 3.484375 -5.953125 C 4.390625 -5.953125 5.125 -5.675781 5.6875 -5.125 C 6.257812 -4.570312 6.546875 -3.847656 6.546875 -2.953125 C 6.546875 -2.066406 6.257812 -1.34375 5.6875 -0.78125 C 5.125 -0.226562 4.390625 0.046875 3.484375 0.046875 C 2.554688 0.046875 1.804688 -0.226562 1.234375 -0.78125 C 0.671875 -1.34375 0.390625 -2.066406 0.390625 -2.953125 C 0.390625 -3.847656 0.671875 -4.570312 1.234375 -5.125 C 1.804688 -5.675781 2.554688 -5.953125 3.484375 -5.953125 Z M 3.484375 -4.859375 C 2.941406 -4.859375 2.503906 -4.675781 2.171875 -4.3125 C 1.835938 -3.957031 1.671875 -3.5 1.671875 -2.9375 C 1.671875 -2.375 1.835938 -1.910156 2.171875 -1.546875 C 2.503906 -1.191406 2.9375 -1.015625 3.46875 -1.015625 C 4.007812 -1.015625 4.445312 -1.191406 4.78125 -1.546875 C 5.113281 -1.910156 5.28125 -2.375 5.28125 -2.9375 C 5.28125 -3.5 5.109375 -3.957031 4.765625 -4.3125 C 4.429688 -4.675781 4.003906 -4.859375 3.484375 -4.859375 Z M 3.484375 -4.859375 "/></g></g></g><g fill="#ffffff" fill-opacity="1"><g transform="translate(140.281419, 232.695863)"><g><path d="M 3.625 0 L 2.296875 0 L 0.015625 -5.90625 L 1.34375 -5.90625 L 2.984375 -1.25 L 4.609375 -5.90625 L 5.890625 -5.90625 Z M 3.625 0 "/></g></g></g><g fill="#ffffff" fill-opacity="1"><g transform="translate(148.148931, 232.695863)"><g><path d="M 1.03125 -8.15625 C 1.175781 -8.300781 1.359375 -8.375 1.578125 -8.375 C 1.796875 -8.375 1.972656 -8.300781 2.109375 -8.15625 C 2.253906 -8.007812 2.328125 -7.820312 2.328125 -7.59375 C 2.328125 -7.375 2.253906 -7.191406 2.109375 -7.046875 C 1.972656 -6.898438 1.796875 -6.828125 1.578125 -6.828125 C 1.359375 -6.828125 1.175781 -6.898438 1.03125 -7.046875 C 0.894531 -7.191406 0.828125 -7.375 0.828125 -7.59375 C 0.828125 -7.820312 0.894531 -8.007812 1.03125 -8.15625 Z M 2.203125 0 L 0.9375 0 L 0.9375 -5.90625 L 2.203125 -5.90625 Z M 2.203125 0 "/></g></g></g><g fill="#ffffff" fill-opacity="1"><g transform="translate(153.33909, 232.695863)"><g><path d="M 3.375 -5.953125 C 4.394531 -5.953125 5.128906 -5.644531 5.578125 -5.03125 C 6.035156 -4.425781 6.222656 -3.570312 6.140625 -2.46875 L 1.671875 -2.46875 C 1.773438 -2.007812 1.988281 -1.644531 2.3125 -1.375 C 2.644531 -1.113281 3.046875 -0.984375 3.515625 -0.984375 C 4.179688 -0.984375 4.734375 -1.210938 5.171875 -1.671875 L 5.859375 -0.953125 C 5.242188 -0.285156 4.425781 0.046875 3.40625 0.046875 C 2.5 0.046875 1.769531 -0.226562 1.21875 -0.78125 C 0.664062 -1.332031 0.390625 -2.050781 0.390625 -2.9375 C 0.390625 -3.832031 0.664062 -4.554688 1.21875 -5.109375 C 1.78125 -5.660156 2.5 -5.941406 3.375 -5.953125 Z M 1.65625 -3.40625 L 5.03125 -3.40625 C 5.007812 -3.875 4.847656 -4.242188 4.546875 -4.515625 C 4.253906 -4.796875 3.867188 -4.9375 3.390625 -4.9375 C 2.921875 -4.9375 2.53125 -4.796875 2.21875 -4.515625 C 1.914062 -4.242188 1.726562 -3.875 1.65625 -3.40625 Z M 1.65625 -3.40625 "/></g></g></g><g fill="#ffffff" fill-opacity="1"><g transform="translate(161.906491, 232.695863)"><g><path d="M 2.703125 -5.96875 C 3.523438 -5.96875 4.21875 -5.765625 4.78125 -5.359375 L 4.3125 -4.421875 C 3.75 -4.765625 3.179688 -4.9375 2.609375 -4.9375 C 2.035156 -4.9375 1.75 -4.742188 1.75 -4.359375 C 1.75 -4.160156 1.851562 -4 2.0625 -3.875 C 2.28125 -3.75 2.539062 -3.644531 2.84375 -3.5625 C 3.15625 -3.476562 3.460938 -3.378906 3.765625 -3.265625 C 4.078125 -3.148438 4.335938 -2.960938 4.546875 -2.703125 C 4.765625 -2.441406 4.875 -2.109375 4.875 -1.703125 C 4.875 -1.140625 4.65625 -0.707031 4.21875 -0.40625 C 3.789062 -0.101562 3.253906 0.046875 2.609375 0.046875 C 2.160156 0.046875 1.722656 -0.0234375 1.296875 -0.171875 C 0.878906 -0.316406 0.523438 -0.519531 0.234375 -0.78125 L 0.6875 -1.6875 C 0.9375 -1.46875 1.242188 -1.289062 1.609375 -1.15625 C 1.984375 -1.019531 2.335938 -0.953125 2.671875 -0.953125 C 2.953125 -0.953125 3.179688 -1.003906 3.359375 -1.109375 C 3.535156 -1.210938 3.625 -1.375 3.625 -1.59375 C 3.625 -1.8125 3.515625 -1.988281 3.296875 -2.125 C 3.085938 -2.257812 2.832031 -2.363281 2.53125 -2.4375 C 2.226562 -2.519531 1.925781 -2.617188 1.625 -2.734375 C 1.320312 -2.847656 1.0625 -3.03125 0.84375 -3.28125 C 0.632812 -3.539062 0.53125 -3.863281 0.53125 -4.25 C 0.53125 -4.8125 0.738281 -5.238281 1.15625 -5.53125 C 1.570312 -5.820312 2.085938 -5.96875 2.703125 -5.96875 Z M 2.703125 -5.96875 "/></g></g></g><g fill="#ffffff" fill-opacity="1"><g transform="translate(169.162994, 232.695863)"><g/></g></g><g fill="#ffffff" fill-opacity="1"><g transform="translate(174.064316, 232.695863)"><g><path d="M 6.625 0.21875 L 5.421875 -0.984375 C 4.691406 -0.285156 3.910156 0.0625 3.078125 0.0625 C 2.378906 0.0625 1.796875 -0.144531 1.328125 -0.5625 C 0.867188 -0.976562 0.640625 -1.5 0.640625 -2.125 C 0.640625 -2.625 0.785156 -3.035156 1.078125 -3.359375 C 1.367188 -3.691406 1.78125 -4 2.3125 -4.28125 C 1.8125 -4.945312 1.5625 -5.546875 1.5625 -6.078125 C 1.5625 -6.597656 1.75 -7.019531 2.125 -7.34375 C 2.5 -7.664062 2.988281 -7.828125 3.59375 -7.828125 C 4.164062 -7.828125 4.632812 -7.675781 5 -7.375 C 5.363281 -7.070312 5.546875 -6.679688 5.546875 -6.203125 C 5.546875 -5.953125 5.492188 -5.71875 5.390625 -5.5 C 5.296875 -5.28125 5.148438 -5.082031 4.953125 -4.90625 C 4.753906 -4.738281 4.5625 -4.597656 4.375 -4.484375 C 4.1875 -4.367188 3.953125 -4.234375 3.671875 -4.078125 C 4.035156 -3.648438 4.578125 -3.085938 5.296875 -2.390625 C 5.566406 -2.785156 5.800781 -3.25 6 -3.78125 L 6.828125 -3.171875 C 6.585938 -2.578125 6.316406 -2.082031 6.015625 -1.6875 L 7.28125 -0.453125 Z M 2.578125 -6.09375 C 2.578125 -5.695312 2.769531 -5.234375 3.15625 -4.703125 C 3.601562 -4.941406 3.945312 -5.171875 4.1875 -5.390625 C 4.425781 -5.609375 4.546875 -5.875 4.546875 -6.1875 C 4.546875 -6.445312 4.457031 -6.648438 4.28125 -6.796875 C 4.113281 -6.953125 3.882812 -7.03125 3.59375 -7.03125 C 3.289062 -7.03125 3.046875 -6.941406 2.859375 -6.765625 C 2.671875 -6.585938 2.578125 -6.363281 2.578125 -6.09375 Z M 3.125 -0.90625 C 3.664062 -0.90625 4.195312 -1.160156 4.71875 -1.671875 C 3.84375 -2.546875 3.210938 -3.195312 2.828125 -3.625 C 2.460938 -3.425781 2.179688 -3.21875 1.984375 -3 C 1.785156 -2.78125 1.6875 -2.519531 1.6875 -2.21875 C 1.6875 -1.832031 1.820312 -1.515625 2.09375 -1.265625 C 2.375 -1.023438 2.71875 -0.90625 3.125 -0.90625 Z M 3.125 -0.90625 "/></g></g></g><g fill="#ffffff" fill-opacity="1"><g transform="translate(183.464915, 232.695863)"><g/></g></g><g fill="#ffffff" fill-opacity="1"><g transform="translate(188.366236, 232.695863)"><g><path d="M 6.328125 -6.59375 L 3.859375 -6.59375 L 3.859375 0 L 2.5625 0 L 2.5625 -6.59375 L 0.09375 -6.59375 L 0.09375 -7.78125 L 6.328125 -7.78125 Z M 6.328125 -6.59375 "/></g></g></g><g fill="#ffffff" fill-opacity="1"><g transform="translate(196.833651, 232.695863)"><g><path d="M 4.484375 0 L 3.140625 0 L 0.03125 -7.78125 L 1.4375 -7.78125 L 3.84375 -1.453125 L 6.265625 -7.78125 L 7.625 -7.78125 Z M 4.484375 0 "/></g></g></g><g fill="#ffffff" fill-opacity="1"><g transform="translate(206.534212, 232.695863)"><g/></g></g><g fill="#ffffff" fill-opacity="1"><g transform="translate(211.435533, 232.695863)"><g><path d="M 3.578125 -7.828125 C 4.585938 -7.828125 5.492188 -7.5625 6.296875 -7.03125 L 5.75 -5.875 C 4.957031 -6.351562 4.203125 -6.59375 3.484375 -6.59375 C 3.085938 -6.59375 2.773438 -6.519531 2.546875 -6.375 C 2.316406 -6.238281 2.203125 -6.039062 2.203125 -5.78125 C 2.203125 -5.53125 2.304688 -5.3125 2.515625 -5.125 C 2.722656 -4.945312 2.984375 -4.8125 3.296875 -4.71875 C 3.609375 -4.632812 3.945312 -4.523438 4.3125 -4.390625 C 4.675781 -4.265625 5.007812 -4.128906 5.3125 -3.984375 C 5.625 -3.847656 5.882812 -3.625 6.09375 -3.3125 C 6.300781 -3.007812 6.40625 -2.640625 6.40625 -2.203125 C 6.40625 -1.515625 6.128906 -0.96875 5.578125 -0.5625 C 5.035156 -0.15625 4.332031 0.046875 3.46875 0.046875 C 2.875 0.046875 2.296875 -0.0625 1.734375 -0.28125 C 1.179688 -0.507812 0.695312 -0.8125 0.28125 -1.1875 L 0.859375 -2.328125 C 1.242188 -1.960938 1.671875 -1.679688 2.140625 -1.484375 C 2.617188 -1.285156 3.066406 -1.1875 3.484375 -1.1875 C 3.941406 -1.1875 4.296875 -1.269531 4.546875 -1.4375 C 4.804688 -1.601562 4.9375 -1.835938 4.9375 -2.140625 C 4.9375 -2.398438 4.832031 -2.617188 4.625 -2.796875 C 4.425781 -2.984375 4.171875 -3.117188 3.859375 -3.203125 C 3.546875 -3.285156 3.207031 -3.390625 2.84375 -3.515625 C 2.476562 -3.640625 2.140625 -3.769531 1.828125 -3.90625 C 1.515625 -4.039062 1.253906 -4.257812 1.046875 -4.5625 C 0.847656 -4.863281 0.75 -5.234375 0.75 -5.671875 C 0.75 -6.328125 1.003906 -6.847656 1.515625 -7.234375 C 2.035156 -7.628906 2.722656 -7.828125 3.578125 -7.828125 Z M 3.578125 -7.828125 "/></g></g></g><g fill="#ffffff" fill-opacity="1"><g transform="translate(220.380652, 232.695863)"><g><path d="M 4.46875 -5.953125 C 5.15625 -5.953125 5.691406 -5.75 6.078125 -5.34375 C 6.472656 -4.945312 6.671875 -4.390625 6.671875 -3.671875 L 6.671875 0 L 5.390625 0 L 5.390625 -3.328125 C 5.390625 -3.765625 5.257812 -4.109375 5 -4.359375 C 4.75 -4.617188 4.40625 -4.75 3.96875 -4.75 C 3.445312 -4.75 3.035156 -4.570312 2.734375 -4.21875 C 2.429688 -3.875 2.28125 -3.4375 2.28125 -2.90625 L 2.28125 0 L 1 0 L 1 -8.25 L 2.28125 -8.25 L 2.28125 -4.75 C 2.6875 -5.550781 3.414062 -5.953125 4.46875 -5.953125 Z M 4.46875 -5.953125 "/></g></g></g><g fill="#ffffff" fill-opacity="1"><g transform="translate(229.847914, 232.695863)"><g><path d="M 3.484375 -5.953125 C 4.390625 -5.953125 5.125 -5.675781 5.6875 -5.125 C 6.257812 -4.570312 6.546875 -3.847656 6.546875 -2.953125 C 6.546875 -2.066406 6.257812 -1.34375 5.6875 -0.78125 C 5.125 -0.226562 4.390625 0.046875 3.484375 0.046875 C 2.554688 0.046875 1.804688 -0.226562 1.234375 -0.78125 C 0.671875 -1.34375 0.390625 -2.066406 0.390625 -2.953125 C 0.390625 -3.847656 0.671875 -4.570312 1.234375 -5.125 C 1.804688 -5.675781 2.554688 -5.953125 3.484375 -5.953125 Z M 3.484375 -4.859375 C 2.941406 -4.859375 2.503906 -4.675781 2.171875 -4.3125 C 1.835938 -3.957031 1.671875 -3.5 1.671875 -2.9375 C 1.671875 -2.375 1.835938 -1.910156 2.171875 -1.546875 C 2.503906 -1.191406 2.9375 -1.015625 3.46875 -1.015625 C 4.007812 -1.015625 4.445312 -1.191406 4.78125 -1.546875 C 5.113281 -1.910156 5.28125 -2.375 5.28125 -2.9375 C 5.28125 -3.5 5.109375 -3.957031 4.765625 -4.3125 C 4.429688 -4.675781 4.003906 -4.859375 3.484375 -4.859375 Z M 3.484375 -4.859375 "/></g></g></g><g fill="#ffffff" fill-opacity="1"><g transform="translate(238.826364, 232.695863)"><g><path d="M 7.828125 0 L 6.5 0 L 5 -4.375 L 3.5 0 L 2.1875 0 L 0.015625 -5.90625 L 1.328125 -5.90625 L 2.859375 -1.265625 L 4.34375 -5.90625 L 5.671875 -5.90625 L 7.171875 -1.265625 L 8.671875 -5.90625 L 9.96875 -5.90625 Z M 7.828125 0 "/></g></g></g><g fill="#ffffff" fill-opacity="1"><g transform="translate(250.78212, 232.695863)"><g><path d="M 2.703125 -5.96875 C 3.523438 -5.96875 4.21875 -5.765625 4.78125 -5.359375 L 4.3125 -4.421875 C 3.75 -4.765625 3.179688 -4.9375 2.609375 -4.9375 C 2.035156 -4.9375 1.75 -4.742188 1.75 -4.359375 C 1.75 -4.160156 1.851562 -4 2.0625 -3.875 C 2.28125 -3.75 2.539062 -3.644531 2.84375 -3.5625 C 3.15625 -3.476562 3.460938 -3.378906 3.765625 -3.265625 C 4.078125 -3.148438 4.335938 -2.960938 4.546875 -2.703125 C 4.765625 -2.441406 4.875 -2.109375 4.875 -1.703125 C 4.875 -1.140625 4.65625 -0.707031 4.21875 -0.40625 C 3.789062 -0.101562 3.253906 0.046875 2.609375 0.046875 C 2.160156 0.046875 1.722656 -0.0234375 1.296875 -0.171875 C 0.878906 -0.316406 0.523438 -0.519531 0.234375 -0.78125 L 0.6875 -1.6875 C 0.9375 -1.46875 1.242188 -1.289062 1.609375 -1.15625 C 1.984375 -1.019531 2.335938 -0.953125 2.671875 -0.953125 C 2.953125 -0.953125 3.179688 -1.003906 3.359375 -1.109375 C 3.535156 -1.210938 3.625 -1.375 3.625 -1.59375 C 3.625 -1.8125 3.515625 -1.988281 3.296875 -2.125 C 3.085938 -2.257812 2.832031 -2.363281 2.53125 -2.4375 C 2.226562 -2.519531 1.925781 -2.617188 1.625 -2.734375 C 1.320312 -2.847656 1.0625 -3.03125 0.84375 -3.28125 C 0.632812 -3.539062 0.53125 -3.863281 0.53125 -4.25 C 0.53125 -4.8125 0.738281 -5.238281 1.15625 -5.53125 C 1.570312 -5.820312 2.085938 -5.96875 2.703125 -5.96875 Z M 2.703125 -5.96875 "/></g></g></g><g fill="#ffffff" fill-opacity="1"><g transform="translate(161.390151, 247.695862)"><g><path d="M 3.96875 -1.359375 L 4.28125 -0.375 C 3.800781 -0.0820312 3.316406 0.0625 2.828125 0.0625 C 2.347656 0.0625 1.953125 -0.0820312 1.640625 -0.375 C 1.328125 -0.664062 1.171875 -1.097656 1.171875 -1.671875 L 1.171875 -4.734375 L 0.34375 -4.734375 L 0.34375 -5.6875 L 1.171875 -5.6875 L 1.171875 -7.3125 L 2.4375 -7.3125 L 2.4375 -5.6875 L 4.1875 -5.6875 L 4.1875 -4.734375 L 2.4375 -4.734375 L 2.4375 -1.90625 C 2.4375 -1.601562 2.488281 -1.390625 2.59375 -1.265625 C 2.695312 -1.148438 2.859375 -1.09375 3.078125 -1.09375 C 3.316406 -1.09375 3.613281 -1.179688 3.96875 -1.359375 Z M 3.96875 -1.359375 "/></g></g></g><g fill="#ffffff" fill-opacity="1"><g transform="translate(167.946755, 247.695862)"><g><path d="M 2.21875 -5.90625 L 2.21875 -4.734375 C 2.625 -5.546875 3.304688 -5.953125 4.265625 -5.953125 L 4.265625 -4.734375 C 3.679688 -4.765625 3.207031 -4.625 2.84375 -4.3125 C 2.476562 -4.007812 2.269531 -3.601562 2.21875 -3.09375 L 2.21875 0 L 0.9375 0 L 0.9375 -5.90625 Z M 2.21875 -5.90625 "/></g></g></g><g fill="#ffffff" fill-opacity="1"><g transform="translate(174.358947, 247.695862)"><g><path d="M 4.484375 0 L 4.484375 -0.71875 C 4.066406 -0.195312 3.414062 0.0625 2.53125 0.0625 C 1.90625 0.0625 1.398438 -0.109375 1.015625 -0.453125 C 0.640625 -0.804688 0.453125 -1.25 0.453125 -1.78125 C 0.453125 -2.320312 0.648438 -2.75 1.046875 -3.0625 C 1.441406 -3.382812 1.988281 -3.550781 2.6875 -3.5625 L 4.484375 -3.5625 L 4.484375 -3.734375 C 4.484375 -4.109375 4.359375 -4.398438 4.109375 -4.609375 C 3.867188 -4.816406 3.519531 -4.921875 3.0625 -4.921875 C 2.488281 -4.921875 1.910156 -4.722656 1.328125 -4.328125 L 0.796875 -5.203125 C 1.253906 -5.472656 1.660156 -5.664062 2.015625 -5.78125 C 2.378906 -5.894531 2.820312 -5.953125 3.34375 -5.953125 C 4.101562 -5.953125 4.6875 -5.769531 5.09375 -5.40625 C 5.507812 -5.039062 5.722656 -4.53125 5.734375 -3.875 L 5.75 0 Z M 2.796875 -0.953125 C 3.253906 -0.953125 3.640625 -1.054688 3.953125 -1.265625 C 4.265625 -1.484375 4.441406 -1.753906 4.484375 -2.078125 L 4.484375 -2.625 L 2.875 -2.625 C 2.457031 -2.625 2.148438 -2.5625 1.953125 -2.4375 C 1.753906 -2.3125 1.65625 -2.109375 1.65625 -1.828125 C 1.65625 -1.566406 1.753906 -1.351562 1.953125 -1.1875 C 2.160156 -1.03125 2.441406 -0.953125 2.796875 -0.953125 Z M 2.796875 -0.953125 "/></g></g></g><g fill="#ffffff" fill-opacity="1"><g transform="translate(182.904134, 247.695862)"><g><path d="M 1.03125 -8.15625 C 1.175781 -8.300781 1.359375 -8.375 1.578125 -8.375 C 1.796875 -8.375 1.972656 -8.300781 2.109375 -8.15625 C 2.253906 -8.007812 2.328125 -7.820312 2.328125 -7.59375 C 2.328125 -7.375 2.253906 -7.191406 2.109375 -7.046875 C 1.972656 -6.898438 1.796875 -6.828125 1.578125 -6.828125 C 1.359375 -6.828125 1.175781 -6.898438 1.03125 -7.046875 C 0.894531 -7.191406 0.828125 -7.375 0.828125 -7.59375 C 0.828125 -7.820312 0.894531 -8.007812 1.03125 -8.15625 Z M 2.203125 0 L 0.9375 0 L 0.9375 -5.90625 L 2.203125 -5.90625 Z M 2.203125 0 "/></g></g></g><g fill="#ffffff" fill-opacity="1"><g transform="translate(188.094291, 247.695862)"><g><path d="M 2.28125 0 L 1 0 L 1 -8.25 L 2.28125 -8.25 Z M 2.28125 0 "/></g></g></g><g fill="#ffffff" fill-opacity="1"><g transform="translate(193.406649, 247.695862)"><g><path d="M 3.375 -5.953125 C 4.394531 -5.953125 5.128906 -5.644531 5.578125 -5.03125 C 6.035156 -4.425781 6.222656 -3.570312 6.140625 -2.46875 L 1.671875 -2.46875 C 1.773438 -2.007812 1.988281 -1.644531 2.3125 -1.375 C 2.644531 -1.113281 3.046875 -0.984375 3.515625 -0.984375 C 4.179688 -0.984375 4.734375 -1.210938 5.171875 -1.671875 L 5.859375 -0.953125 C 5.242188 -0.285156 4.425781 0.046875 3.40625 0.046875 C 2.5 0.046875 1.769531 -0.226562 1.21875 -0.78125 C 0.664062 -1.332031 0.390625 -2.050781 0.390625 -2.9375 C 0.390625 -3.832031 0.664062 -4.554688 1.21875 -5.109375 C 1.78125 -5.660156 2.5 -5.941406 3.375 -5.953125 Z M 1.65625 -3.40625 L 5.03125 -3.40625 C 5.007812 -3.875 4.847656 -4.242188 4.546875 -4.515625 C 4.253906 -4.796875 3.867188 -4.9375 3.390625 -4.9375 C 2.921875 -4.9375 2.53125 -4.796875 2.21875 -4.515625 C 1.914062 -4.242188 1.726562 -3.875 1.65625 -3.40625 Z M 1.65625 -3.40625 "/></g></g></g><g fill="#ffffff" fill-opacity="1"><g transform="translate(201.97405, 247.695862)"><g><path d="M 2.21875 -5.90625 L 2.21875 -4.734375 C 2.625 -5.546875 3.304688 -5.953125 4.265625 -5.953125 L 4.265625 -4.734375 C 3.679688 -4.765625 3.207031 -4.625 2.84375 -4.3125 C 2.476562 -4.007812 2.269531 -3.601562 2.21875 -3.09375 L 2.21875 0 L 0.9375 0 L 0.9375 -5.90625 Z M 2.21875 -5.90625 "/></g></g></g><g fill="#ffffff" fill-opacity="1"><g transform="translate(208.386243, 247.695862)"><g><path d="M 2.703125 -5.96875 C 3.523438 -5.96875 4.21875 -5.765625 4.78125 -5.359375 L 4.3125 -4.421875 C 3.75 -4.765625 3.179688 -4.9375 2.609375 -4.9375 C 2.035156 -4.9375 1.75 -4.742188 1.75 -4.359375 C 1.75 -4.160156 1.851562 -4 2.0625 -3.875 C 2.28125 -3.75 2.539062 -3.644531 2.84375 -3.5625 C 3.15625 -3.476562 3.460938 -3.378906 3.765625 -3.265625 C 4.078125 -3.148438 4.335938 -2.960938 4.546875 -2.703125 C 4.765625 -2.441406 4.875 -2.109375 4.875 -1.703125 C 4.875 -1.140625 4.65625 -0.707031 4.21875 -0.40625 C 3.789062 -0.101562 3.253906 0.046875 2.609375 0.046875 C 2.160156 0.046875 1.722656 -0.0234375 1.296875 -0.171875 C 0.878906 -0.316406 0.523438 -0.519531 0.234375 -0.78125 L 0.6875 -1.6875 C 0.9375 -1.46875 1.242188 -1.289062 1.609375 -1.15625 C 1.984375 -1.019531 2.335938 -0.953125 2.671875 -0.953125 C 2.953125 -0.953125 3.179688 -1.003906 3.359375 -1.109375 C 3.535156 -1.210938 3.625 -1.375 3.625 -1.59375 C 3.625 -1.8125 3.515625 -1.988281 3.296875 -2.125 C 3.085938 -2.257812 2.832031 -2.363281 2.53125 -2.4375 C 2.226562 -2.519531 1.925781 -2.617188 1.625 -2.734375 C 1.320312 -2.847656 1.0625 -3.03125 0.84375 -3.28125 C 0.632812 -3.539062 0.53125 -3.863281 0.53125 -4.25 C 0.53125 -4.8125 0.738281 -5.238281 1.15625 -5.53125 C 1.570312 -5.820312 2.085938 -5.96875 2.703125 -5.96875 Z M 2.703125 -5.96875 "/></g></g></g></svg>