<?xml version="1.0" standalone="no"?>
<!DOCTYPE svg PUBLIC "-//W3C//DTD SVG 20010904//EN"
 "http://www.w3.org/TR/2001/REC-SVG-20010904/DTD/svg10.dtd">
<svg version="1.0" xmlns="http://www.w3.org/2000/svg"
 width="500.000000pt" height="500.000000pt" viewBox="0 0 500.000000 500.000000"
 preserveAspectRatio="xMidYMid meet">
<metadata>
Created by potrace 1.14, written by Peter Selinger 2001-2017
</metadata>
<g transform="translate(0.000000,500.000000) scale(0.100000,-0.100000)"
fill="#000000" stroke="none">
<path d="M1540 3583 c-323 -38 -632 -152 -1040 -386 -130 -75 -320 -197 -320
-206 0 -6 1034 -833 1049 -839 7 -2 51 32 166 126 42 34 173 130 265 194 90
62 335 208 349 208 3 0 22 8 41 19 19 10 67 30 107 44 223 81 382 85 537 14
111 -51 187 -123 360 -341 151 -190 221 -257 310 -301 83 -41 141 -53 227 -49
211 11 537 205 907 541 80 73 83 77 65 93 -10 10 -137 106 -281 215 l-264 197
-97 -99 c-302 -305 -528 -368 -776 -213 -41 25 -156 110 -165 121 -3 4 -25 23
-50 44 -25 20 -70 60 -101 89 -173 159 -337 289 -444 351 -277 160 -535 215
-845 178z"/>
<path d="M2993 2148 c-162 -24 -263 -140 -250 -286 12 -146 83 -209 294 -261
67 -17 136 -37 152 -46 84 -43 73 -164 -17 -202 -49 -21 -155 -13 -214 16 -24
11 -65 42 -91 68 -28 27 -51 43 -55 37 -5 -5 -30 -35 -57 -67 l-48 -58 24 -26
c64 -71 116 -102 214 -128 56 -15 176 -21 235 -12 172 27 263 135 255 305 -5
111 -53 183 -150 228 -27 12 -104 35 -170 49 -66 15 -127 31 -135 35 -49 26
-70 95 -42 138 47 72 212 75 313 5 l52 -35 33 38 c18 22 40 51 49 66 16 27 15
29 -12 54 -75 70 -234 104 -380 82z"/>
<path d="M2423 2142 l-52 -3 -30 -92 c-16 -51 -67 -198 -112 -327 -45 -129
-84 -245 -86 -257 -3 -13 -9 -23 -13 -23 -9 0 -17 22 -110 295 -28 83 -55 159
-59 170 -5 11 -24 67 -43 125 l-35 105 -124 0 -124 0 -1 -472 -1 -473 87 0 87
0 -1 315 c-1 199 3 314 9 312 9 -3 30 -60 135 -362 23 -66 53 -153 67 -192
l26 -73 77 0 c65 0 79 3 85 18 7 17 134 379 184 525 15 43 31 77 36 75 6 -2
10 -118 11 -298 1 -162 2 -301 3 -307 2 -18 167 -18 173 0 2 6 4 219 3 472 l0
460 -70 5 c-39 3 -93 4 -122 2z"/>
</g>
</svg>
